<?xml version="1.0" standalone="no"?>
<!DOCTYPE svg PUBLIC "-//W3C//DTD SVG 1.1//EN" "http://www.w3.org/Graphics/SVG/1.1/DTD/svg11.dtd" >
<svg xmlns="http://www.w3.org/2000/svg">
<metadata></metadata>
<defs>
<font id="sonoma_scriptregular" horiz-adv-x="1372" >
<font-face units-per-em="2048" ascent="1638" descent="-410" />
<missing-glyph horiz-adv-x="512" />
<glyph />
<glyph />
<glyph horiz-adv-x="682" />
<glyph />
<glyph />
<glyph />
<glyph />
<glyph />
<glyph />
<glyph />
<glyph />
<glyph unicode="&#x9;" />
<glyph unicode="&#xa;" horiz-adv-x="1128" d="M682 780l199 230q41 47 80 47q49 0 40 -47q-3 -22 -53 -60l-221 -170h-45zM938 780l240 234q40 43 73 43q50 0 41 -47q-3 -21 -57 -60l-244 -170h-53z" />
<glyph />
<glyph />
<glyph unicode="&#xd;" horiz-adv-x="557" d="M63 113q10 37 62 131l229 403q19 32 52 35l86 16h8q13 0 10 -16l-6 -12l-246 -430q-46 -85 -57 -134q-12 -57 43 -57q130 0 624 512v-26q-9 -48 -166 -199q-359 -346 -534 -346q-132 0 -105 123z" />
<glyph />
<glyph />
<glyph />
<glyph />
<glyph />
<glyph />
<glyph />
<glyph />
<glyph />
<glyph />
<glyph />
<glyph />
<glyph horiz-adv-x="1075" d="M-109 -586q-23 37 17 217q41 194 211 533q-56 29 -83 49t-24 31q0 2 15 16l39 43q9 12 20 12q17 0 25 -8l53 -35q439 949 702 1160h11q40 -52 2 -224q-91 -427 -506 -753q-39 -121 -113 -246q57 -51 156 -51q113 0 243 106q22 22 54 47l190 336q19 31 51 35l88 16h7 q15 0 12 -16l-6 -12l-246 -430q-48 -83 -59 -134q-12 -57 45 -57q130 0 624 512q-2 -6 -2 -26q-9 -48 -166 -199q-356 -346 -534 -346q-132 0 -105 123q6 32 43 98q-10 -10 -31.5 -25t-27.5 -20q-125 -78 -244 -78q-86 0 -147 43q30 -187 4 -305q-59 -279 -311 -416z M-63 -477q178 106 225 315q18 89 6 182q-181 -274 -223 -458zM420 553q277 224 336 491q22 112 2 205q-51 -77 -146 -286q-129 -290 -192 -410zM1026 934q3 15 39 57q37 43 49 43q4 1 19.5 -8.5t29.5 -19t15 -9.5q37 -17 34 -34q-18 -93 -63 -93q-30 0 -76 19 q-26 10 -37.5 21.5t-9.5 23.5z" />
<glyph horiz-adv-x="1257" d="M-109 -586q-23 37 17 217q41 194 211 533q-56 29 -83 49t-24 31q0 2 15 16l39 43q9 12 20 12q17 0 25 -8l53 -35q439 949 702 1160h11q40 -52 2 -224q-91 -427 -506 -753q-39 -121 -113 -246q57 -51 156 -51q113 0 243 106q27 23 109 98q88 203 125 283q113 241 299 492 q169 223 281 284l16 2q28 -35 4 -147q-92 -436 -561 -875q-43 -94 -60 -172q-38 -176 70 -176q104 0 340 213q45 39 295 293l-2 -37q-9 -37 -160 -188q-360 -354 -538 -354q-108 0 -146 77q-28 74 -8 172q1 10 16 52q-92 -82 -143 -115q-125 -78 -244 -78q-86 0 -147 43 q30 -187 4 -305q-59 -279 -311 -416zM-63 -477q178 106 225 315q18 89 6 182q-181 -274 -223 -458zM420 553q277 224 336 491q22 112 2 205q-51 -77 -146 -286q-129 -290 -192 -410zM958 483q310 292 369 572q16 82 19 186q-236 -305 -388 -758z" />
<glyph horiz-adv-x="2396" d="M231 45q27 123 158 193q111 63 256 63q189 0 479 -188q87 107 115 145h-96q-340 0 -514 229q-168 219 -103 533q77 350 404 586q320 229 712 229q309 0 515 -188q155 122 288 122q119 0 156 -112q26 -87 2 -209q-78 -355 -397 -680q-320 -329 -703 -449 q-111 -168 -272 -299q256 -143 495 -143q138 0 277 53q166 67 190 183q8 33 -4 45q-3 6 -43 24q-69 34 -51 119q8 43 49 76t88 33q53 0 74 -50q16 -43 4 -94q-41 -190 -223 -338q-187 -159 -391 -159q-134 0 -273 77q-82 43 -223 156q-296 -215 -651 -215q-137 0 -234 66 q-108 77 -84 192zM272 45q-21 -108 84 -168q80 -51 213 -51q284 0 529 254q-143 89 -213 125q-128 61 -248 61q-117 0 -223 -53q-121 -65 -142 -168zM578 963q-59 -281 104 -474q167 -194 469 -194q57 0 104 6q81 117 195 334l-498 -186l-16 63l565 211q44 77 119 223 q148 284 244 412q81 108 254 266q-181 178 -465 178q-369 0 -688 -252q-316 -249 -387 -587zM1532 360q370 128 655 463q272 316 346 666q53 246 -94 246q-87 0 -248 -146q61 -80 121 -239l-41 -15l-14 33q-54 141 -90 188q-171 -220 -416 -739l391 146l21 -64l-453 -168 q-134 -285 -178 -371z" />
<glyph horiz-adv-x="712" d="M117 553l213 80l8 14q115 245 301 492q167 225 276 284l17 2q30 -34 6 -147q-53 -250 -233 -506l163 62l17 -64l-256 -96q-105 -132 -254 -271q-44 -97 -58 -172q-41 -176 70 -176q101 0 340 213q77 67 293 293l-2 -37q-9 -37 -160 -188q-360 -354 -536 -354 q-105 0 -146 77q-29 69 -8 172q17 86 123 318l-160 -60zM401 485q86 81 156 162l-113 -41zM479 688l150 57q105 149 141 312q18 94 21 186q-185 -238 -312 -555z" />
<glyph horiz-adv-x="2936" d="M291 653q83 380 409 639q328 264 740 264q134 0 241 -43q279 289 652 289q121 0 231 -39l211 -86q259 -112 424 -112q164 0 328 194l39 -8q-97 -135 -250 -225q-166 -94 -324 -94q-246 -178 -393 -416l-141 -223q-146 -228 -277 -394q-170 -216 -354 -344 q282 -123 514 -123q145 0 276 70q152 84 179 205q9 41 -27 41q-6 0 -62 -17q-50 -16 -63 -16q-102 0 -84 92q12 52 56.5 89.5t97.5 37.5q81 0 118 -76q30 -65 15 -143q-41 -179 -224 -307q-186 -131 -382 -131q-202 0 -512 211q-359 -211 -705 -211q-400 0 -608 258 q-202 251 -125 618zM342 629q-70 -326 115 -570q186 -247 547 -247q262 0 606 258q-196 152 -355 178q-79 -15 -104 -15q-38 0 -55.5 8t-14.5 23q6 33 99 33q56 0 84 -14q275 77 460 247q185 173 238 420q76 359 -272 523q-38 -58 -45 -93q-12 -57 43 -57h49 q36 0 57.5 -28.5t13.5 -65.5q-7 -36 -47.5 -63t-83.5 -27q-67 0 -94 59q-24 53 -10 115q18 90 84 168l-15 6q-84 37 -200 37q-384 0 -711 -277q-312 -263 -389 -618zM1323 264q65 -13 174 -63l137 -62q0 -2 29 -18q259 244 541 610q201 258 329 381q171 163 404 320 q-180 24 -477 161q-160 71 -213 90q-62 19 -133 19q-195 0 -396 -195q381 -175 295 -575q-53 -246 -237 -418q-178 -169 -453 -250zM2204 2136h55l141 -182l367 182h69l-405 -270h-109z" />
<glyph horiz-adv-x="802" d="M0 -6q0 10 2 14l102 129q19 25 41 25h25l465 379q-167 34 -201 34q-44 0 -90 -49q-43 -49 -57 -49q-34 0 -31 21q2 12 23 43q8 12 14 23t8.5 16t3.5 6q42 82 55 90q23 29 74 29q15 0 115 -17q162 -29 221 -35q70 58 94 58q13 0 20 -3t5 -8q-3 -13 -51 -53l-619 -497 q261 -66 305 -66q79 0 221 121q107 91 355 348q3 -16 -4 -43q-6 -33 -209 -227q-324 -306 -459 -306q-10 0 -125 23q-98 21 -199 33q-55 -49 -92 -49q-15 0 -12 10zM446 1051h56l141 -183l367 183h69l-405 -271h-111z" />
<glyph unicode=" "  horiz-adv-x="512" />
<glyph unicode="&#x09;" horiz-adv-x="512" />
<glyph unicode="&#xa0;" horiz-adv-x="512" />
<glyph unicode="!" horiz-adv-x="749" d="M233 27q24 110 60 110q1 0 11.5 -2.5t37 -8t55.5 -11.5q32 0 17 -82q-9 -39 -82 -39q-105 0 -99 33zM387 240l524 1009q15 34 54 37l137 10q12 1 17 -3t3 -15l-10 -23l-702 -1030l-19 2z" />
<glyph unicode="&#x22;" horiz-adv-x="737" d="M358 868l29 455v43q21 96 111 96t69 -96q-2 -16 -14 -43l-162 -455h-33zM717 868l28 455q-2 11 3 43q21 96 110 96t68 -96l-13 -43l-165 -455h-31z" />
<glyph unicode="#" horiz-adv-x="1732" d="M227 479l66 96h360l178 299h-393l58 97h393l291 483h125l-291 -483h325l291 483h121l-287 -483h346l-59 -97h-348l-178 -299h374l-59 -96h-375l-286 -479h-123l286 479h-319l-293 -479h-123l287 479h-367zM774 575h330l176 299h-326z" />
<glyph unicode="$" horiz-adv-x="1044" d="M2 109l4 16l33 37h20q95 -89 260 -119l310 569q-181 193 -154 320q27 129 180 207q120 63 279 63h18l64 109l74 12l-72 -127q143 -37 186 -80v-14l-28 -29h-13q-95 62 -172 80l-239 -442q102 -116 129 -172q62 -108 41 -209q-34 -162 -222 -254q-149 -76 -340 -76 l-61 -113l-72 -12l66 125q-217 35 -291 109zM381 37h2q144 0 250 69q116 76 143 201q27 122 -106 264zM616 963q-15 -75 93 -207l223 405h-33q-106 0 -184.5 -53.5t-98.5 -144.5z" />
<glyph unicode="%" horiz-adv-x="1441" d="M106 -135q493 499 1041 1173q-159 -123 -260 -123q-12 0 -58 11q-151 -238 -344 -238q-111 0 -163 76q-53 72 -33 170q41 194 200 350q123 129 277 129q105 0 156.5 -72t29.5 -174q-17 -79 -86 -186q21 -12 43 -12q92 0 234 118q108 86 192 187l121 143l14 6h52l2 -10 l-1327 -1556h-84zM395 889q-35 -160 103 -160q156 0 284 242q-14 27 -4 73q15 73 117 193q11 56 -18.5 92.5t-88.5 36.5q-96 0 -198 -111q-156 -173 -195 -366zM813 221q43 192 201 350q126 129 276 129q110 0 156 -73q40 -63 18 -168q-27 -139 -127 -269 q-165 -213 -336 -213q-105 0 -157 76q-53 71 -31 168zM915 182q-34 -168 105 -168q123 0 237 164q128 185 154 311q15 65 -6 111q-27 49 -98 49q-105 0 -199 -108q-58 -61 -117 -176q-63 -116 -76 -183z" />
<glyph unicode="&#x26;" horiz-adv-x="1710" d="M297 264q34 154 190 256q146 93 322 105q-50 121 -23 243q34 169 191 271q143 98 334 98q71 0 155 -23l-47 -69q-90 41 -155 41q-131 0 -217 -77t-113 -206q-28 -144 14 -280q203 -46 359 -205q51 89 73 182q9 46 9 70l399 12q153 3 227 74l15 2v-8q-64 -122 -195 -162 q-85 -27 -258 -27q-20 0 -79.5 2t-76.5 2q-28 -76 -86 -176q161 -251 181 -387l-9 -6q-135 3 -366 194q-284 -208 -551 -208q-147 0 -234 75q-86 74 -59 207zM465 272q-23 -105 34.5 -167t176.5 -62q222 0 434 176q-190 169 -285 346q-124 -9 -233 -94q-103 -83 -127 -199z M973 547q49 -161 184 -287q78 60 117 119q-121 133 -301 168zM1192 233q121 -118 211 -159q24 118 -105 268q-23 -29 -106 -109z" />
<glyph unicode="'" horiz-adv-x="380" d="M358 868l29 455v43q21 96 111 96q88 0 67 -96q-3 -22 -12 -43l-162 -455h-33z" />
<glyph unicode="(" horiz-adv-x="937" d="M416 172q87 415 407 856q245 340 678 754h12l27 -10l-4 -13q-856 -1005 -1047 -1896q-67 -317 -30 -498l-4 -12l-33 -12l-6 6q-99 359 0 825z" />
<glyph unicode=")" horiz-adv-x="937" d="M-150 -647l11 8q858 1028 1042 1901q65 295 31 497l4 17l27 6l16 -6q96 -375 -2 -830q-88 -411 -412 -856q-262 -353 -680 -749h-10z" />
<glyph unicode="*" horiz-adv-x="1128" d="M371 893v10q179 111 428 189q-166 75 -379 75l-12 11l8 43l8 6q157 0 367 -88q-60 105 -203 227l4 14l29 50l8 2q110 -89 215 -287q85 186 119 235q44 68 100 68q63 0 90 -6l-2 -10q-213 -157 -277 -312q261 129 383 129q30 0 43 -8l76 -39v-10q-355 -34 -487 -94 q156 -54 231.5 -96.5t69.5 -73.5q-7 -35 -39 -94h-10q-27 120 -269 229q97 -210 82 -281q-5 -15 -22 -37l-53 -75h-11q34 244 -37 389q-105 -151 -153 -377l-12 -12h-48l-4 6l2 12q37 175 166 356q-153 -46 -350 -176h-18z" />
<glyph unicode="+" horiz-adv-x="1875" d="M397 561l21 96h606l119 564h108l-118 -564h606l-21 -96h-606l-119 -561h-108l119 561h-607z" />
<glyph unicode="," horiz-adv-x="520" d="M18 -207l29 47q199 94 215 168q9 43 -37 43q-18 0 -61 -14l-10 8l49 92q18 41 98 41q105 0 84 -98q-30 -145 -367 -287z" />
<glyph unicode="-" horiz-adv-x="970" d="M371 371l49 84l18 10h506l8 -12l-49 -93l-16 -6h-514z" />
<glyph unicode="." horiz-adv-x="520" d="M121 27q24 110 59 110q1 0 105 -22q29 0 14 -82q-9 -39 -80 -39q-53 0 -77 8t-21 25z" />
<glyph unicode="/" horiz-adv-x="755" d="M-20 -274l1296 1919h72l6 -13l-1256 -1921h-114z" />
<glyph unicode="0" horiz-adv-x="1044" d="M160 397q30 143 110 285q145 260 351 410q161 118 299 118q169 0 215 -143q38 -111 0 -281q-80 -373 -363 -641q-175 -163 -354 -163q-169 0 -236 137q-57 113 -22 278zM305 117q27 -99 139 -99q162 0 340 261q201 285 265 591q21 112 6 189q-21 108 -129 108 q-230 0 -484 -491q-98 -186 -137 -375q-24 -108 0 -184z" />
<glyph unicode="1" horiz-adv-x="1044" d="M301 12l12 19l549 989q-166 -143 -356 -258h-12l-13 18l6 13q227 155 326 241q1 1 100 103q41 44 78 47l74 6q15 0 12 -12q-2 -11 -14 -23l-596 -1116q-17 -29 -26 -33q-7 -4 -19 -4l-98 -2q-13 -1 -19 1.5t-4 10.5z" />
<glyph unicode="2" horiz-adv-x="1044" d="M23 0l2 12l194 207q15 12 33 12q24 0 33 -6q605 501 663 770q30 144 -110 144q-122 0 -230 -111q-90 -93 -133 -211l-8 -10h-29l-2 12q49 154 166 262q132 123 291 123q117 0 180 -67.5t41 -171.5q-27 -116 -229 -303q-133 -121 -553 -449q141 -66 155 -72 q114 -51 168 -51q102 0 246 150l8 4l19 -11v-8q-211 -248 -350 -248q-49 0 -150 37q-134 54 -227 82l-148 -108h-10z" />
<glyph unicode="3" horiz-adv-x="1044" d="M66 27l2 10l12 14l12 4q84 -35 166 -35q236 0 418 238q78 104 98 201q19 81 -27.5 129.5t-138.5 48.5q-62 0 -164 -31l-16 10l-2 19l8 8q459 172 506 385q11 48 -14.5 80.5t-75.5 32.5q-139 0 -309 -185h-15l-18 13l-2 12q205 227 409 227q99 0 150 -48.5t33 -133.5 q-40 -196 -488 -344q154 0 242 -55q105 -66 78 -199q-37 -168 -275 -332q-169 -114 -368 -114q-159 0 -221 45z" />
<glyph unicode="4" horiz-adv-x="1044" d="M176 397l6 15q391 382 606 651l46 61q37 37 65 43l158 29q16 0 10 -22q-6 -28 -203 -216q-178 -171 -602 -530l504 8l131 264q19 29 45 29l92 10q18 0 15 -16l-7 -16l-133 -265h58l12 -6l-8 -24l-15 -11h-67l-176 -362q-12 -28 -35 -31l-125 -20h-8q-9 0 -6 12q0 6 8 25 l194 370l-563 -12z" />
<glyph unicode="5" horiz-adv-x="1044" d="M84 0v12l8 15l12 4q68 -19 132 -19q150 0 299 101q220 146 266 364q19 89 -20.5 144t-133.5 55q-71 0 -188 -60l-111 -57q-21 0 -18 16l14 25l299 528q14 33 68 33l370 6q60 0 119 41l8 -4q-40 -111 -145 -145q-80 -25 -281 -25q-75 0 -141 4l-227 -401q149 94 303 94 q132 0 199 -69t42 -185q-40 -195 -290 -362q-206 -138 -441 -138q-92 0 -143 23z" />
<glyph unicode="6" horiz-adv-x="1044" d="M193 309q49 239 313 512q208 217 498 406l14 2l20 -21l-12 -18q-245 -180 -438 -424q-208 -263 -262 -508q-18 -91 8 -154q34 -79 123 -79q143 0 266 172q98 140 127 282q34 162 -76 162q-99 0 -199 -127q-73 -90 -114 -207l-10 -10l-21 -2l-6 12q41 150 137 260 q120 138 268 138q100 0 150 -78q39 -68 18 -168q-38 -171 -196 -320q-174 -157 -352 -157q-156 0 -222.5 88.5t-33.5 238.5z" />
<glyph unicode="7" horiz-adv-x="1044" d="M92 2q6 33 270 291q307 298 805 741l-352 10q-72 3 -127 -14q-53 -21 -98 -84q-17 -30 -25 -41q-9 -12 -37 -12q-13 0 -10 16q9 47 113 176q49 64 129 82q57 13 190 13q211 0 334 -15l33 21l14 4l6 -16l-2 -15q-29 -33 -74.5 -80t-115.5 -118.5t-123 -126.5 q-234 -234 -311 -322q-217 -237 -404 -469l-8 -12l-16 -17q-11 -8 -29 -12l-139 -8q-14 -2 -19 0t-4 8z" />
<glyph unicode="8" horiz-adv-x="1044" d="M158 244q21 113 172 252q80 75 262 202q-65 127 -41 246q25 116 126 190t232 74q123 0 182.5 -62t36.5 -171q-30 -142 -317 -381q86 -173 59 -303q-27 -134 -157 -223q-133 -86 -281 -86q-136 0 -215 67q-86 74 -59 195zM266 248q-21 -96 19 -160q41 -68 147 -68 q103 0 185 69.5t104 170.5q27 122 -115 397q-297 -210 -340 -409zM688 985q-18 -89 107 -348q206 162 247 348q38 176 -129 176q-81 0 -146 -51t-79 -125z" />
<glyph unicode="9" horiz-adv-x="1044" d="M293 -25l10 13q541 359 655 880q62 293 -124 293q-142 0 -267 -143q-113 -128 -139 -260q-44 -203 117 -203q100 0 188 107q69 76 109 184l10 6l27 -2l4 -10q-54 -147 -150 -258q-130 -148 -264 -148q-106 0 -152 76q-38 63 -16 166q41 200 246 381q177 151 323 151 q156 0 217 -129q47 -109 17 -260q-49 -224 -301 -485q-208 -214 -481 -381h-15z" />
<glyph unicode=":" horiz-adv-x="573" d="M147 27q24 110 60 110q36 -3 102 -22q32 0 17 -82q-9 -39 -80 -39q-105 0 -99 33zM438 575q21 107 58 107q-6 0 102 -18q38 -6 23 -82q-9 -45 -84 -45q-55 0 -79 9t-20 29z" />
<glyph unicode=";" horiz-adv-x="573" d="M45 -207l25 47q202 94 217 168q9 43 -35 43q-18 0 -64 -14l-6 8l47 92q18 41 99 41q107 0 86 -98q-30 -142 -369 -287zM473 575q21 107 53 107h2q1 -1 6 -1.5t10.5 -1.5t15.5 -3t20 -3.5t24.5 -4t28.5 -4.5q31 -5 16 -82q-9 -45 -84 -45q-52 0 -74 9t-18 29z" />
<glyph unicode="&#x3c;" horiz-adv-x="1875" d="M412 571l16 82l1397 482l-23 -109l-1214 -416l1038 -413l-22 -109z" />
<glyph unicode="=" horiz-adv-x="1875" d="M358 377l21 96h1321l-21 -96h-1321zM436 745l21 101h1321l-21 -101h-1321z" />
<glyph unicode="&#x3e;" horiz-adv-x="1875" d="M309 88l23 109l1212 413l-1036 416l22 109l1192 -482l-16 -82z" />
<glyph unicode="?" horiz-adv-x="878" d="M258 27q24 110 57 110q1 0 105 -22q31 0 16 -82q-9 -39 -80 -39q-53 0 -77 8t-21 25zM379 215l4 16q34 72 235 334q311 403 345 570q40 184 -121 184q-208 0 -367 -344l-8 -6h-29l-4 12q63 160 172 266q133 127 293 127q123 0 184.5 -76t36.5 -190q-27 -126 -166 -291 q-52 -59 -319 -332q-155 -155 -221 -272l-11 -6z" />
<glyph unicode="@" horiz-adv-x="2224" d="M276 537q89 410 519 692q338 221 737 221q371 0 557 -174q199 -187 131 -512q-70 -327 -354 -526q-162 -113 -303 -113q-214 0 -177 217q-179 -215 -395 -215q-142 0 -196 106q-49 90 -21 226q50 229 291 409q183 136 348 136q195 0 201 -199l104 180h129l-311 -602 q-35 -66 -45 -111q-21 -108 92 -108q118 0 268 108q264 193 328 496q65 305 -127 479q-179 164 -518 164q-388 0 -705 -225q-362 -256 -450 -682q-71 -334 158 -541q211 -199 585 -199q390 0 736 211l18 -34q-365 -217 -762 -217q-415 0 -635 184q-286 238 -203 629z M885 383q-18 -87 10 -147q34 -70 125 -70q150 0 315 180q185 200 228 397q19 91 -21 154q-47 74 -139 74q-117 0 -244 -133q-226 -238 -274 -455z" />
<glyph unicode="A" horiz-adv-x="2766" d="M309 686q73 351 383 612q322 273 703 273h73q256 256 625 256q317 0 465 -189q98 -126 98 -303q0 -80 -20 -170q-37 -182 -166 -549q125 -27 166 -110l-31 -14q-54 79 -141 94q-90 -209 -148 -471q-23 -109 -22 -190q0 -236 190 -236q165 0 203 170h29 q-44 -203 -275 -203q-232 0 -297 215q-24 83 -24 181t24 212q29 142 99 307q-128 -48 -283 -79q-179 -329 -381 -488q-248 -199 -588 -199q-381 0 -575 271q-129 184 -129 412q0 95 22 198zM354 649q-18 -87 -18 -168q0 -214 127 -391q181 -246 530 -246q295 0 527 191 q168 143 350 442q-117 -18 -144 -18q-239 -213 -520 -213q-220 0 -340 135q-87 100 -87 234q0 50 12 104q12 45 65 149l27 -6q-35 -62 -56 -151q-10 -45 -10 -88q0 -118 76 -211q105 -123 295 -123q218 0 457 178q-90 29 -125 80l36 24q39 -62 117 -71q129 108 209 268 q-125 -49 -225 -49q-220 0 -328 153q-72 102 -72 232q0 56 13 117q40 177 166 321q-391 -9 -703 -278q-302 -259 -379 -615zM1303 1221q-12 -55 -12 -107q0 -122 67 -219q103 -145 305 -145q121 0 250 69q33 107 35 119q15 69 15 132q0 158 -93 276q-124 161 -387 196 q-146 -166 -180 -321zM1511 1571q280 -41 404 -217q92 -122 92 -287q0 -73 -18 -154l-15 -69q199 177 281 346h37q-146 -267 -336 -385q-90 -200 -189 -305l93 12q16 2 34 4l203 322q139 219 162 245q103 133 233 185q4 38 4 74q0 176 -98 294q-124 148 -368 148 q-280 0 -519 -213zM1978 530q26 0 111 27q105 34 160 43q0 9 24.5 55.5t24.5 55.5l78 202q93 247 98 267l10 49q-127 -59 -297 -324q-65 -102 -209 -375z" />
<glyph unicode="B" horiz-adv-x="2820" d="M264 649q68 323 330 555q265 227 625 297q162 143 370 219q204 74 414 74q360 0 651 -250q125 82 242 82q20 0 108 -14l-8 -35q-58 10 -96 10q-102 0 -227 -67q158 -163 158 -339q0 -42 -9 -85q-29 -134 -108 -214.5t-230 -131.5q129 -112 129 -253q0 -36 -8 -73 q-11 -60 -31 -98l-8 -41q65 -71 74 -166l-41 -17q-26 86 -62 131q-100 -196 -239 -317q-183 -160 -371 -160q-174 0 -174 139q0 31 8 68q6 33 27 80q-353 -295 -784 -295q-403 0 -615 268q-147 187 -147 433q0 95 22 200zM309 616q-19 -90 -19 -174q0 -224 136 -403 q188 -258 547 -258q379 0 710 407q169 208 428 711q146 277 230 381q96 116 260 240q-230 239 -606 239q-394 0 -709 -239h119q270 0 424 -154q145 -145 145 -385v-10q127 165 154 301q9 42 9 91q0 43 -7 91l31 14q12 -59 12 -110q0 -42 -8 -78q-40 -186 -193 -367l-14 -67 q-53 -256 -277 -443q-238 -194 -507 -194q-224 0 -343 131q-91 96 -91 232q0 48 12 102q15 75 59 147h37q-49 -100 -60 -147q-10 -45 -10 -87q0 -119 78 -212q105 -123 299 -123q256 0 477 188q217 181 281 416q-229 -174 -465 -174q-224 0 -348 139q-90 101 -90 241 q0 52 12 109q31 147 149 283q-338 -103 -563 -315q-235 -226 -299 -523zM1057 1161q-11 -50 -10 -95q0 -127 83 -222q121 -127 326 -127q235 0 471 205q4 40 4 78q0 198 -119 329q-146 158 -421 158q6 0 -2 -1q-28 -5 -156 -18q-133 -109 -176 -307zM1796 -37q-4 -21 -4 -39 q0 -40 18 -72q28 -47 88 -47q133 0 300 215q101 137 190 322q-83 25 -104 25q-175 0 -316 -123q-138 -126 -172 -281zM1999 309q142 92 291 92q64 0 116 -18q40 102 52 166q8 36 8 68q0 71 -41 122q-8 0 -33.5 -4t-32.5 -4q-41 0 -59 10.5t-14 32.5q6 33 63 33q31 0 86 -25 q169 108 227 379q15 69 15 131q0 108 -45 195q-142 -115 -252 -338q-28 -54 -158 -375q-82 -216 -223 -465z" />
<glyph unicode="C" horiz-adv-x="2209" d="M424 1026q74 344 389 580q315 239 696 239q372 0 551 -231q174 121 299 121q115 0 142 -117q7 -34 7 -76q0 -58 -14 -129q-62 -292 -327 -582q36 -73 41 -108q3 -16 3 -36q0 -43 -13 -105q-47 -217 -232 -445q-183 -229 -405 -342q74 -179 237 -299l-35 -35 q-95 75 -151 142q-50 68 -90 178q-46 -12 -88 -12q-186 0 -269 182q-44 101 -44 214q0 58 12 120q-41 -6 -86 -6q-342 0 -519 219q-123 151 -123 357q0 81 19 171zM471 991q-15 -72 -15 -138q0 -189 122 -339q165 -201 464 -201h97q188 717 882 1270q-135 221 -489 221 q-360 0 -676 -243q-314 -241 -385 -570zM1294 152q-19 -88 -19 -154q0 -197 165 -197q36 0 88 19q-7 23 -12.5 46t-9 48t-5.5 38.5t-4.5 41t-3.5 33.5q0 78 29 217q3 17 23.5 79.5t23.5 79.5l-236 -90q-13 -43 -39 -161zM1366 371q136 28 223 75q200 455 451 455 q56 0 78 -31q284 381 336 629q7 33 7 64q0 37 -10 71q-21 80 -92 80q-107 0 -264 -160q34 -37 76 -176l-43 -18q-24 72 -27 90q-13 35 -43 80q-419 -437 -672 -1106zM1556 -176q205 113 375 379q146 238 195 465q9 45 9 82q0 28 -5 51q-229 -223 -508 -377 q-38 -138 -53 -209q-27 -127 -27 -238q0 -81 14 -153zM1638 479q290 155 455 365q-23 20 -61 20q-206 0 -394 -385z" />
<glyph unicode="D" horiz-adv-x="2799" d="M289 707q70 340 346 579q267 231 655 301q321 236 713 236q433 0 690 -269q158 76 266 76q46 0 88 -10l-8 -33q-24 8 -73 8q-128 0 -252 -75q136 -176 136 -427q0 -114 -28 -243q-54 -242 -170 -440l-16 -25q56 -70 59 -127l-45 -10q0 53 -41 94q-372 -565 -719 -565 q-92 0 -133 53q-28 36 -28 89q0 24 6 52q1 8 11 37t11 37q-342 -268 -731 -268q-406 0 -614 282q-145 196 -145 445q0 98 22 203zM328 674q-20 -93 -19 -180q0 -228 135 -412q194 -262 566 -262q323 0 596 293q167 179 374 561q189 341 279 461q173 235 399 391 q-109 131 -280 202.5t-373 71.5q-343 0 -635 -205h8q326 -1 490 -153q147 -137 147 -382q0 -29 -2 -59q128 187 154 322q9 47 9 105q0 16 -1 32l-4 33l33 8q9 -54 9 -103q0 -43 -7 -81q-38 -178 -207 -383q-80 -288 -273 -469q-219 -207 -522 -207q-217 0 -350 133 q-97 100 -97 237q0 46 11 95q9 44 70 160l41 -6q-47 -74 -62 -146q-9 -42 -9 -83q0 -120 79 -218q105 -129 295 -129q242 0 465 180q216 171 286 396q-259 -179 -460 -179q-228 0 -359 146q-94 107 -94 248q0 51 12 106q36 155 201 338q-338 -82 -590 -322 q-251 -239 -315 -540zM1069 1190q-11 -50 -10 -96q0 -133 88 -230q121 -133 332 -133q227 0 469 213q11 65 11 125q0 180 -104 311q-140 174 -436 174h-114q-203 -203 -236 -364zM1782 -29q-4 -20 -4 -38q0 -44 24 -76q34 -45 107 -45q193 0 387 215q97 107 264 368 q-128 41 -188 41q-162 0 -297 -102q-115 -79 -187 -162q-88 -108 -106 -201zM2025 342q198 137 361 137q84 0 182 -43q130 245 180 473q26 121 26 223q0 44 -5 85q-15 124 -103 276q-111 -88 -212 -254q-91 -154 -218 -451q-134 -313 -211 -446z" />
<glyph unicode="E" horiz-adv-x="2930" d="M301 700q80 379 395 639q328 275 734 275q233 190 604 190q141 0 407 -78l168 -51q343 -104 520 -104q119 0 183 24q90 35 110 131q3 13 -4 46l39 6q1 -10 1 -21q0 -24 -5 -45q-27 -137 -172 -229q-137 -84 -287 -84q-96 0 -264 43l-51 6q-139 -104 -256 -315 q-59 -105 -160 -359q108 27 182 27q60 0 127 -31q70 -33 70 -77q0 -7 -2 -13q-9 -39 -45 -39q-22 0 -25 45q-12 76 -133 76q-64 0 -194 -31q-108 -250 -175 -364q-121 -204 -274 -324q192 -125 537 -125q140 0 274 70q156 80 180 196q2 10 2 17q0 39 -37 39l-55 -21 q-30 -12 -61 -12q-43 0 -67 35q-16 24 -16 51q0 13 3 26q10 47 52.5 78t94.5 31q85 0 115 -76q12 -34 13 -74q0 -33 -9 -71q-41 -191 -207 -320q-171 -133 -372 -133q-155 0 -295 70q-121 64 -240 151q-344 -200 -676 -200q-397 0 -608 284q-143 195 -143 442q0 95 22 199z M352 680q-20 -94 -20 -182q0 -227 133 -410q191 -268 555 -268q294 0 561 243q-131 94 -205 130q-113 55 -246 55h-53q-19 -8 -59 -8q-39 0 -31 32q6 35 53 35q29 0 56 -6q12 0 42.5 -5t37.5 -5q215 0 413 131q190 122 303 309q-42 12 -86 74q-138 -105 -301 -105 q-209 0 -309 158q-60 98 -60 222q0 58 13 122q47 209 231 381l-49 -12q-355 -47 -637 -314q-271 -253 -342 -577zM1196 1202q-13 -61 -13 -117q0 -110 52 -200q86 -148 278 -148q163 0 281 103l12 61q15 68 64 68q24 0 24 -32q0 -9 -2 -22q-9 -45 -49 -75q11 -43 68 -78 q61 118 78 201q15 71 15 136q0 166 -97 296q-147 188 -416 188h-59q-192 -180 -236 -381zM1298 260l45 -6l19 -6q7 -4 113 -64l92 -51q27 0 61 -24q117 117 379 544q3 19 25 47h-33q-22 0 -64 11q-102 -184 -258 -295q-156 -106 -379 -156zM1485 1614q304 -9 454 -199 q107 -133 107 -314q0 -74 -18 -157q-11 -58 -68 -199q8 0 33 -4t32 -4h25l33 68l82 139q122 197 200 291q97 114 275 238q-161 49 -213 71l-158 70q-281 121 -411 121q-202 0 -373 -121z" />
<glyph unicode="F" horiz-adv-x="2336" d="M303 707q76 369 389 614t727 272q272 230 688 230q191 0 418 -76q347 -114 416 -131q118 -33 252 -33q109 0 194 43q73 34 166 121l29 -18q-123 -126 -286 -199.5t-326 -73.5q-87 0 -195 19q-174 -105 -303 -310q-72 -117 -182 -372q88 14 147 14q56 0 154 -25l-27 -32 q-108 24 -119 24q-56 0 -121 -10l-43 -8q-31 -63 -31 -68q0 -1 1 0q-197 -446 -441 -655q-306 -256 -757 -256q-407 0 -621 282q-151 198 -151 449q0 96 22 199zM350 670q-19 -92 -20 -178q0 -229 139 -412q196 -260 565 -260q274 0 494 196q199 180 506 664q13 17 28 43 q-17 -10 -34 -10q-4 0 -27 5t-31 5q-270 -463 -731 -463q-220 0 -350 133q-95 102 -95 240q0 47 11 98q21 96 61 162l37 -16q-54 -98 -63 -146q-8 -41 -8 -81q0 -123 81 -222q107 -131 297 -131q208 0 404 135q169 114 301 307q-60 44 -78 78q-85 -64 -144.5 -87t-150.5 -23 q-213 0 -317 155q-68 103 -68 230q0 53 12 110q41 184 205 357q-377 -46 -663 -299q-291 -256 -361 -590zM1204 1202q-10 -49 -11 -96q0 -119 69 -219q95 -148 286 -148q154 0 279 119q-7 17 2 51q15 76 63 76q28 0 19 -47q-8 -33 -37 -80q6 -46 59 -84q43 75 64 178 q16 75 16 141q0 180 -117 300q-159 166 -464 166q-178 -132 -228 -357zM1475 1593q324 -9 477 -200q110 -136 110 -324q0 -76 -18 -160q-15 -66 -62 -153q8 0 35 -3t31 -3q19 0 31 6q25 36 55 88q143 256 219 344q109 128 326 268l43 33q-214 65 -248 80l-229 100 q-198 88 -332 88q-235 0 -438 -164z" />
<glyph unicode="G" horiz-adv-x="2506" d="M70 -94q117 549 782 786q-96 122 -96 293q0 73 18 156q68 319 375 536q307 213 653 213q341 0 555 -245q251 196 400 196q89 0 118 -57q20 -32 20 -76q0 -25 -7 -55q-33 -163 -242 -416q-171 -201 -360 -363q-188 -161 -400 -268q12 -69 90 -69q68 0 156 67 q226 170 428 170q32 0 46 -9t9 -26q-6 -25 -75 -28q-209 -6 -467 -572l-140 -301q-186 -403 -413 -590q-285 -231 -693 -231q-415 0 -626 258q-153 180 -153 431q0 95 22 200zM121 -113q-20 -97 -20 -186q0 -219 124 -391q181 -258 543 -258q338 0 608 289q89 93 170 200 q96 124 287 465q175 314 305 465q118 140 297 240q3 0 22 11.5t21 12.5q-127 -21 -242 -98l-108 -72q-103 -65 -160 -65q-97 0 -149 82q-14 -8 -125 -52q95 -124 95 -276q0 -56 -13 -115q-58 -267 -277 -461q-229 -204 -522 -204q-216 0 -340 133q-89 97 -89 234q0 46 11 98 q15 60 68 141l22 -17q-25 -51 -39 -118q-12 -53 -12 -100q0 -113 66 -199q92 -129 284 -129q262 0 498 196q222 188 272 430q14 62 14 120q0 148 -92 261q-167 -45 -286 -45q-283 0 -469 174q-299 -95 -504 -297q-204 -204 -260 -469zM807 1104q-11 -48 -11 -97 q0 -149 101 -296q175 39 289 39q150 0 272 -45q141 -50 207 -140l35 10q26 6 102 31q-20 55 -20 124q0 54 12 116q79 368 535 778q-214 227 -531 227q-340 0 -633 -221q-294 -219 -358 -526zM930 670q196 -146 434 -146q156 0 258 29q-149 158 -434 158q-112 0 -258 -41z M1890 647q309 169 580 459q308 320 364 590q4 20 4 37q0 75 -90 75q-115 0 -323 -239q42 -65 80 -207l-41 -19l-15 43q-7 22 -53 146q-153 -184 -295 -416q-169 -276 -205 -436z" />
<glyph unicode="H" horiz-adv-x="2906" d="M285 698q77 359 370 594q283 229 693 279q118 89 211 129q112 41 235 41q128 0 250 -70l133 -76q140 -82 281 -82q95 0 290 68q122 43 193 43h18l-8 -35h-18q-229 0 -428 -295q-94 -135 -242 -469l-22 -69l260 61q151 278 362 498q282 299 528 299q82 0 138 -41 q48 -35 48 -89q0 -13 -3 -28q-8 -32 -44 -60t-71 -28q-34 0 -50.5 27.5t-8.5 60.5l6 33q3 13 3 24q0 50 -56 50q-149 0 -361 -283q-124 -165 -246 -397l-26 -49q122 -9 207 -111l-48 -25q-62 95 -159 95h-21q-20 -35 -24 -48q-40 -70 -64 -122q-5 -32 -102 -220 q-135 -266 -170 -426q-17 -79 -17 -135q0 -135 101 -135q158 0 280 227l37 -8q-49 -101 -125 -168q-90 -84 -188 -84q-153 0 -209 156q-27 73 -27 154q0 60 15 125q52 254 243 604l35 61l-258 -51l-31 -76q-340 -872 -1155 -872q-413 0 -628 274q-150 192 -150 443 q0 99 23 206zM334 655q-20 -94 -20 -180q0 -223 132 -401q194 -256 555 -256q310 0 576 272q144 150 381 522l55 86h-90q-109 -203 -293 -321q-192 -125 -422 -125t-350 135q-88 99 -88 237q0 51 12 107q17 80 56 143l26 -6l-47 -145q-11 -47 -11 -90q0 -119 81 -213 q110 -125 303 -125q188 0 389 127q185 119 289 291q-47 24 -84 80q-132 -105 -309 -105q-203 0 -306 160q-61 104 -61 225q0 55 12 113q40 197 193 344q-373 -62 -641 -303q-267 -243 -338 -572zM1155 1186q-13 -55 -12 -106q0 -112 59 -208q94 -149 281 -149q171 0 291 102 q-3 28 0 49q15 76 63 76q26 0 26 -32q0 -11 -3 -25q-6 -30 -41 -68q6 -45 77 -80q45 83 66 189q15 68 15 130q0 173 -113 300q-152 174 -437 174h-67q-165 -162 -205 -352zM1407 1571h45q299 0 455 -193q114 -137 115 -319q0 -69 -17 -144q-20 -100 -66 -184h91l57 94 q139 239 147 260q142 250 406 420q-139 -32 -209 -32q-128 0 -217 38q-54 25 -180 103q-139 86 -258 86q-219 0 -369 -129z" />
<glyph unicode="I" horiz-adv-x="2269" d="M272 686q76 358 408 625q330 266 727 266q311 0 487 -191q411 387 1160 437l-9 -33q-274 -77 -514 -449q-147 -230 -301 -598q164 53 312 238l22 -16q-151 -194 -348 -260q-112 -247 -156 -318q-103 -175 -225 -291q-165 -153 -377 -236t-434 -83q-415 0 -627 268 q-147 189 -147 438q0 97 22 203zM313 662q-19 -89 -19 -173q0 -224 136 -409q199 -260 557 -260q349 0 623 268q181 184 370 565l17 33q-59 14 -78 25q-276 -463 -731 -463q-211 0 -344 133q-96 100 -96 238q0 44 10 92q15 69 73 159l25 -8q-35 -68 -53 -151 q-10 -46 -10 -89q0 -120 79 -212q112 -121 306 -121q196 0 403 139q185 126 295 309q-161 121 -161 295q0 40 9 84q20 102 138 244q-169 184 -445 184q-373 0 -702 -270q-328 -267 -402 -612zM1827 981q-7 -35 -8 -66q0 -97 75 -145q57 127 64 168q11 58 11 114 q0 84 -25 165q-97 -138 -117 -236zM1933 743q32 -14 90 -14l31 51q278 449 428 625q196 228 430 367q-314 -44 -522 -162q-234 -126 -414 -361q35 -98 35 -202q0 -71 -16 -144q-11 -53 -62 -160z" />
<glyph unicode="J" horiz-adv-x="2396" d="M-61 -53q73 357 399 606q324 254 717 254q291 0 456 -189q117 -140 117 -322q0 -66 -16 -138q-55 -258 -271 -447q-226 -198 -510 -198q-211 0 -337 129q-89 94 -89 226q0 45 11 95q7 31 59 156l33 -6q-53 -115 -59 -150q-10 -44 -10 -85q0 -114 79 -202 q104 -122 287 -122q258 0 493 198q222 195 271 430q14 67 14 127q0 169 -108 293q-144 172 -418 172q-365 0 -686 -266q-313 -258 -381 -590q-19 -90 -19 -173q0 -211 125 -376q180 -241 529 -241q312 0 563 202q192 152 389 463q177 269 489 860q-163 15 -241 133 q-57 75 -57 175q0 43 10 90q67 321 522 518q336 147 768 188l-8 -35q-246 -44 -482 -403q-122 -186 -282 -551l-19 -51q151 55 285 217l31 -14q-75 -97 -152 -152q-70 -51 -194 -100q-201 -480 -359 -744q-258 -427 -569 -628t-678 -201q-389 0 -588 252q-136 173 -136 405 q0 93 22 195zM1892 934q-7 -37 -7 -69q0 -163 198 -183l57 106q108 198 146 256q76 128 170 246q230 279 456 418q-338 -47 -633 -256q-325 -231 -387 -518z" />
<glyph unicode="K" horiz-adv-x="2883" d="M279 700q77 360 372 600q300 247 695 277q14 17 32 25q226 186 518 186q241 0 424 -162l160 -139q49 -28 60 -33q214 172 368 172q45 0 73 -22q22 -18 23 -46q0 -7 -2 -14q-15 -77 -125 -127q-79 -39 -180 -39q-61 0 -127 17q-99 -111 -160 -221q-72 -128 -225 -482 q-191 -428 -432 -635q-306 -262 -731 -262q-407 0 -619 268q-147 186 -147 433q0 98 23 204zM330 676q-20 -95 -21 -184q0 -220 127 -396q188 -258 547 -258q322 0 582 254q173 170 372 518l248 426q62 101 117 174q30 43 205 215l-25 11q-42 20 -217 135q-145 90 -231 125 q-79 39 -203 39q-236 0 -428 -148h29q284 0 436 -168q137 -149 137 -407v-11q43 56 133 195l23 -10q-39 -102 -170 -260q-77 -279 -275 -459q-219 -201 -512 -201q-222 0 -344 125q-103 97 -103 234q0 44 11 92q3 19 66 170l30 -10q-50 -110 -59 -160q-9 -43 -10 -83 q0 -118 82 -206q109 -115 299 -115q236 0 454 170q201 157 287 379q-207 -145 -387 -145q-216 0 -332 155q-76 106 -76 241q0 52 11 108q35 165 167 315q-346 -35 -630 -295q-276 -258 -340 -565zM1165 1221q-11 -51 -11 -99q0 -124 75 -225q109 -145 309 -145 q205 0 406 174q17 79 17 150q0 173 -101 294q-140 174 -437 174h-67q-157 -164 -191 -323zM2204 -31q21 100 129 344q95 219 108 287q10 50 10 92q0 63 -22 109q-27 -6 -49 -6q-100 0 -100 46q0 5 1 11q9 35 56 35q62 0 114 -49q192 50 312 258l119 200q84 147 208 240 q142 109 295 109q82 0 118 -25q28 -20 28 -55q0 -10 -2 -21q-7 -41 -43.5 -70.5t-79.5 -29.5t-88 57q-18 62 -60 62q-171 0 -389 -367q-104 -169 -153 -227q-95 -105 -230 -158q77 -80 97 -145q10 -36 10 -81.5t-10 -99.5q-24 -111 -50 -184l-82 -199q-3 -16 -19 -78.5 t-19 -78.5q-10 -47 -11 -82q0 -119 113 -119q37 0 108 18l-2 -32q-145 -54 -221 -54q-122 0 -172 95q-31 59 -31 129q0 33 7 69zM2595 1425q43 -14 108 -14t150 29q94 37 106 96q2 9 2 16q0 43 -59 43q-151 0 -307 -170z" />
<glyph unicode="L" horiz-adv-x="2396" d="M231 45q27 123 158 193q111 63 256 63q189 0 479 -188q87 107 115 145h-96q-340 0 -514 229q-121 158 -121 365q0 80 18 168q77 350 404 586q320 229 712 229q309 0 515 -188q155 122 288 122q119 0 156 -112q14 -45 13 -100q0 -50 -11 -109q-78 -355 -397 -680 q-320 -329 -703 -449q-111 -168 -272 -299q256 -143 495 -143q138 0 277 53q166 67 190 183q8 33 -4 45q-3 6 -43 24q-55 27 -55 86q0 15 4 33q8 43 49 76t88 33q53 0 74 -50q9 -25 9 -52q0 -20 -5 -42q-41 -190 -223 -338q-187 -159 -391 -159q-134 0 -273 77 q-82 43 -223 156q-296 -215 -651 -215q-137 0 -234 66q-88 63 -88 151q0 20 4 41zM272 45q-4 -18 -3 -35q0 -83 87 -133q80 -51 213 -51q284 0 529 254q-143 89 -213 125q-128 61 -248 61q-117 0 -223 -53q-121 -65 -142 -168zM578 963q-16 -75 -16 -143q0 -189 120 -331 q167 -194 469 -194q57 0 104 6q110 162 365 645q148 284 244 412q81 108 254 266q-181 178 -465 178q-369 0 -688 -252q-316 -249 -387 -587zM1532 360q370 128 655 463q272 316 346 666q14 65 14 113q0 133 -108 133q-87 0 -248 -146q61 -80 121 -239l-41 -15l-14 33 q-54 141 -90 188q-180 -231 -424 -757q-177 -378 -211 -439z" />
<glyph unicode="M" horiz-adv-x="3063" d="M289 735q73 346 379 596q306 253 690 277q255 225 586 225q434 0 538 -291q31 -94 31 -231q0 -176 -51 -422l-23 -107q259 326 465 490q291 226 617 284l-7 -24q-176 -41 -284 -137q-84 -71 -191 -246q-140 -221 -282 -518q-154 -324 -199 -531q-14 -64 -14 -114 q0 -174 166 -174q93 0 169 82l27 -11q-91 -119 -246 -119q-172 0 -243 146q-34 73 -34 163q0 60 15 128q52 245 238 577q181 324 383 535q-206 -130 -498 -482q-29 -38 -108 -133.5t-127 -156.5q-6 -6 -60 -68l72 344q63 297 63 448v25q-114 -148 -194 -325 q-50 -117 -131 -291q-173 -382 -377 -586q-274 -262 -653 -262q-393 0 -598 278q-141 191 -141 433q0 95 22 198zM328 698q-19 -88 -19 -170q0 -222 137 -409q193 -260 549 -260q513 0 953 790l202 365q112 205 215 336q-15 193 -135 313q-127 127 -340 127 q-251 0 -477 -182h35q276 0 428 -168q130 -144 129 -353q0 -30 -2 -61q52 52 76 88l55 103l35 -9q-75 -140 -180 -252q-61 -271 -269 -464q-229 -203 -526 -203q-215 0 -342 133q-89 101 -89 236q0 48 11 100q6 30 57 149l37 -8q-33 -56 -49 -131q-11 -51 -11 -97 q0 -120 75 -210q109 -121 307 -121q242 0 459 172q206 164 282 387q-195 -149 -399 -149q-219 0 -326 149q-78 99 -78 231q0 53 13 111q33 157 180 324q-367 -50 -645 -295q-277 -247 -348 -572zM1180 1241q-12 -53 -12 -102q0 -119 69 -215q103 -142 303 -142 q205 0 406 183q15 74 15 141q0 165 -93 289q-137 180 -416 180q-38 0 -86 -10q-146 -143 -186 -324z" />
<glyph unicode="N" horiz-adv-x="3063" d="M289 707q76 361 405 622q334 258 731 258q29 0 56 -6q250 209 569 209q430 0 602 -360q181 106 381 133v-31q-129 -23 -192 -45q-77 -26 -181 -92q32 -68 32.5 -191.5t-32.5 -304.5l-39 -211l-57 -266q107 162 189 317q483 891 839 891q43 0 74 -24q25 -20 25 -46 q0 -6 -1 -12q-8 -37 -37.5 -61.5t-70.5 -24.5q-50 0 -80 35t-45 35q-136 0 -373 -332q-153 -210 -272 -436q-13 -27 -57 -106.5t-72 -133.5q-68 -124 -137 -196l-13 -49q-27 -132 -28 -235q0 -60 10 -112q40 -208 225 -208q82 0 185 77l36 -18q-109 -100 -264 -100 q-271 0 -354 243q-30 89 -30.5 204.5t30.5 258.5q21 106 98 367q60 198 90 342q31 127 31 192q0 15 -2 27q-136 -121 -258 -328q-55 -96 -180 -358q-82 -175 -117 -228q-65 -127 -123 -194q-107 -120 -164 -166q-279 -225 -667 -225q-414 0 -629 256q-154 187 -154 437 q0 94 21 196zM334 664q-20 -93 -19 -178q0 -233 148 -402q202 -234 586 -234q276 0 510 146q137 86 217 199q117 152 327 536q150 263 195 334q124 184 264 297l-8 16q-27 180 -162 281q-136 92 -350 92q-252 0 -514 -170q265 -38 399 -215q97 -126 97 -291q0 -65 -15 -135 l-14 -66q147 129 217 285l37 -6q-37 -72 -117 -186q-43 -57 -160 -160q-111 -247 -295 -387q-210 -160 -469 -160q-228 0 -352 127q-87 91 -87 225q0 52 13 111q21 97 62 160l33 -9q-45 -67 -60 -143q-10 -47 -10 -91q0 -121 76 -214q102 -123 299 -123q208 0 415 139 q195 130 299 322q-157 -66 -280 -66q-217 0 -330 146q-77 99 -77 230q0 52 12 110q29 140 190 336l25 28q-388 0 -711 -270q-314 -259 -391 -614zM1257 1184q-10 -49 -10 -95q0 -121 70 -219q103 -139 295 -139q156 0 311 94q30 58 41 115q15 73 15 139q0 162 -93 277 q-126 157 -393 200q-196 -184 -236 -372z" />
<glyph unicode="O" horiz-adv-x="2340" d="M440 1040q73 343 394 578q321 233 702 233q344 0 543 -227q175 105 272 105q93 -1 133 -61q28 -41 27 -98q0 -27 -6 -57l-15 -65q50 -65 50 -127q2 -27 -23 -150q-94 -442 -598 -1040q-96 -118 -160 -176q-77 -66 -198 -143q53 -186 215 -293l-21 -23q-114 72 -156 127 q-54 69 -83 172q-62 -24 -103 -24q-205 0 -272 180q-31 84 -31 202q0 66 10 142h-65q-339 0 -510 223q-123 155 -123 360q0 77 18 162zM485 1008q-15 -74 -16 -142q0 -194 125 -340q168 -198 475 -198h59q87 340 338 694q258 364 584 580q-179 206 -498 206 q-357 0 -678 -239q-318 -236 -389 -561zM1278 121q-17 -81 -17 -141q0 -175 144 -175q49 0 104 25q-16 81 -16 175q0 140 35 310q10 41 28 97q-121 -50 -206 -72q-48 -120 -72 -219zM1358 383q85 18 207 70q194 580 594 938q3 14 -31 84l-35 75q-191 -185 -405 -538 q-164 -272 -304 -582zM1548 -154q122 66 215 166q60 63 168 207q176 240 326 518q184 332 229 537q4 23 4 50q0 38 -8 83q-276 -643 -880 -971l-31 -141q-36 -165 -36 -299q0 -81 13 -150zM1610 479q595 322 833 951q-29 26 -78 26q-77 0 -163 -65q19 -81 22 -244l-43 -6 q0 96 -14 219q-191 -162 -342 -414q-133 -222 -215 -467zM2122 1583q46 -85 71 -158q101 64 179 64q50 0 82 -14l6 32q5 23 5 47q0 39 -14 78q-24 70 -94 70q-113 0 -235 -119z" />
<glyph unicode="P" horiz-adv-x="2615" d="M274 676q70 343 357 581q270 223 667 299q327 238 732 238q421 0 684 -281q149 76 276 76q61 0 92 -8l-18 -33q-27 8 -72 8q-142 0 -248 -75q116 -177 116 -354q0 -59 -13 -119q-37 -173 -164 -318q-147 -166 -328 -166q-121 0 -155 111l-31 -76q-340 -811 -1143 -811 q-416 0 -627 279q-148 195 -148 444q0 98 23 205zM319 635q-18 -87 -18 -169q0 -223 133 -411q193 -266 547 -266q181 0 371 96q177 96 303 242q82 94 155 209l263 440q154 268 249 389q131 163 353 330q-225 264 -664 264q-373 0 -647 -203q34 9 66 9q293 0 448 -168 q145 -148 145 -379q0 -26 -2 -53q122 140 156 303q11 54 14 186l37 8q0 -128 -12 -184q-44 -207 -209 -375q-70 -283 -276 -471q-224 -205 -529 -205q-228 0 -348 135q-93 100 -93 237q0 48 11 101q19 91 57 146h41q-50 -80 -65 -154q-9 -43 -9 -84q0 -121 83 -215 q114 -123 307 -123q241 0 467 179q210 169 284 397q-217 -178 -473 -178q-224 0 -354 145q-93 108 -93 247q0 51 13 107q22 107 70 181q52 72 141 157q-356 -88 -602 -319q-252 -237 -320 -551zM1073 1159q-11 -50 -11 -96q0 -132 87 -229q122 -134 330 -134q237 0 481 203 q13 70 13 133q0 185 -109 312q-144 176 -443 176q-46 0 -110 -11q-194 -154 -238 -354zM2251 735q-8 -36 -8 -64q0 -98 94 -98q90 0 213 170q136 195 170 365q17 76 17 144q0 111 -46 202q-106 -87 -209 -252q-28 -43 -153 -280q100 74 192 86l-8 -37q-221 -52 -262 -236z " />
<glyph unicode="Q" horiz-adv-x="2441" d="M436 1044q71 343 391 586q318 242 701 242q350 0 567 -227q147 106 281 106q87 0 131 -72q22 -42 22 -93q0 -27 -6 -56q-10 -45 -22 -64q43 -58 43 -156q0 -61 -17 -139q-99 -463 -612 -1062q35 -43 61 -84q4 -7 17.5 -37.5t25.5 -55.5l49 -174q89 -311 308 -311 q76 0 142 46t79 112q2 7 2 14q0 32 -37 49q-74 20 -74 84q0 11 2 23q11 47 47.5 83t83.5 36q94 0 94 -98q0 -28 -8 -64q-37 -162 -163.5 -261.5t-302.5 -99.5q-151 0 -246 99q-87 90 -99 231l-12 186q-16 74 -41 150q-239 -254 -426 -254q-196 0 -260 180q-38 86 -38 207 q0 59 9 127h-67q-333 0 -516 219q-127 157 -127 365q0 78 18 163zM475 1004q-15 -72 -15 -139q0 -191 126 -335q170 -194 477 -194h65q196 639 889 1259l39 35q-115 101 -223 150q-127 53 -287 53q-368 0 -686 -248q-315 -247 -385 -581zM1282 133q-15 -74 -15 -131 q0 -184 158 -184q108 0 226 86q99 70 172 172q-53 90 -187 90q-146 0 -278 -141l-21 18q140 158 312 158q123 0 223 -68q102 119 199 279q368 599 426 874q5 24 5 48q0 39 -14 79q-145 -338 -331 -553q-208 -236 -541 -420q-26 -62 -39 -127h-35q-3 9 0 25q1 8 10.5 37 t10.5 37q-192 -72 -211 -76q-52 -117 -70 -203zM1374 379q147 55 199 82q104 305 221 502q147 242 371 444q-5 8 -35 80q-29 68 -37 76q-218 -231 -418 -570q-181 -304 -301 -614zM1626 489q312 164 518 414q190 231 318 545q-53 27 -90 27q-68 0 -166 -76q18 -107 18 -183 q0 -27 -2 -51l-43 -10q3 35 3 73q0 66 -9 140q-362 -322 -547 -879zM2120 1595q49 -90 75 -163q106 75 197 75q30 0 76 -24l10 47q6 28 6 52q0 40 -16 71q-30 65 -98 65q-100 0 -250 -123z" />
<glyph unicode="R" horiz-adv-x="2795" d="M274 700q71 335 363 584q291 247 666 285q303 233 716 233q399 0 678 -258q127 68 242 68q47 0 100 -17l-6 -32q-28 4 -66 9l-36 5q-112 0 -213 -64q124 -147 124 -309q0 -47 -10 -94q-59 -281 -352 -367q73 -78 73 -183q0 -33 -7 -68q-25 -113 -123 -316 q-93 -193 -109 -268q-5 -25 -5 -45q0 -88 95 -88q91 0 179 94l20 -19q-124 -133 -268 -133q-114 0 -168 78q-33 46 -33 112q0 32 8 70q31 141 162 371l104 187q32 58 37 83q3 15 3 28q0 52 -46 89h-55q-20 0 -39 10t-18 23q9 33 65 33q33 0 86 -33q206 147 262 410 q13 60 13 114q0 109 -54 191q-244 -188 -426 -666l-75 -199q-142 -366 -426 -593q-309 -242 -707 -242q-409 0 -627 274q-149 194 -149 443q0 96 22 200zM322 668q-19 -90 -19 -175q0 -222 133 -405q188 -262 543 -262q316 0 590 268q170 168 381 531l143 243 q129 225 234 351q116 140 317 294q-244 256 -633 256q-346 0 -651 -192h63q295 0 447 -168q130 -140 130 -362q0 -31 -3 -64q117 140 155 309q12 64 12 112q0 37 -7 64l34 15q20 -50 19 -111q0 -41 -8 -86q-40 -180 -220 -366q-61 -272 -272 -459q-232 -203 -520 -203 q-219 0 -342 129q-93 97 -93 233q0 46 11 97q6 28 57 157l39 -6q-47 -89 -59 -151q-9 -44 -9 -85q0 -119 80 -210q115 -121 300 -121q237 0 460 180q214 169 291 387q-232 -168 -455 -168q-229 0 -350 142q-91 107 -91 248q0 49 11 102q36 155 201 338q-330 -59 -596 -316 q-258 -246 -323 -546zM1075 1184q-11 -48 -10 -93q0 -126 82 -225q113 -131 319 -131q247 0 486 193q11 63 11 121q0 192 -118 325q-156 170 -456 170q-43 0 -80 -6q-194 -176 -234 -354z" />
<glyph unicode="S" horiz-adv-x="2295" d="M283 686q70 342 370 592q296 247 686 291q291 284 592 284q271 0 469 -235l-33 -25q-199 228 -436 228q-147 0 -291.5 -71t-248.5 -191q23 10 45 10q293 0 456 -193q121 -143 120 -326q0 -66 -15 -137q-6 -29 -29 -120l68 18q5 0 8 8q310 817 647 817q73 0 107 -61 q16 -31 16 -73q0 -25 -6 -54q-64 -292 -570 -596l-16 -76q-94 -448 -367 -715q-306 -297 -782 -297q-428 0 -655 263q-157 192 -157 452q0 99 22 207zM326 653q-20 -94 -19 -181q0 -229 135 -409q200 -256 570 -256q394 0 667 322q178 208 355 647q-29 -6 -86 -24 q-254 -506 -746 -506q-225 0 -352 127q-89 96 -89 231q0 48 11 101q18 88 74 159l26 -12q-51 -101 -59 -147q-10 -44 -9 -85q0 -117 77 -210q104 -125 293 -125q220 0 417 135q172 121 301 323q-73 -8 -155 -8q-269 0 -430 152q-130 121 -130 292q0 53 13 111 q20 101 106 230q-349 -53 -626 -303q-276 -249 -344 -564zM1237 1290q-12 -57 -13 -108q0 -161 119 -273q147 -141 412 -141q81 0 152 18q37 69 51 146q13 64 13 123q0 173 -116 299q-156 172 -434 172h-63q-97 -124 -121 -236zM2249 899q436 279 501 588q5 24 5 44 q0 71 -70 71q-162 0 -299 -297q-78 -173 -137 -406z" />
<glyph unicode="T" horiz-adv-x="2340" d="M303 705q76 358 397 606q308 235 717 270q256 203 621 203q140 0 403 -84q490 -162 684 -162q122 0 215 43q88 43 178 133l31 -14q-261 -289 -645 -289q-65 0 -188 27q-156 -108 -271 -297q-62 -102 -164 -346q-202 -480 -440 -713q-317 -305 -788 -305q-408 0 -623 280 q-151 193 -151 442q0 99 24 206zM348 662q-19 -90 -19 -174q0 -227 138 -410q193 -258 555 -258q341 0 629 303q183 192 397 582q142 262 207 356q121 183 411 387q-39 12 -86 26t-75 22.5t-45 14.5l-205 95q-243 108 -389 108q-216 0 -393 -133q311 -20 459 -188 q114 -129 114 -329q0 -60 -10 -126q82 106 149 240l37 -11q-79 -162 -203 -303q-82 -256 -290 -428q-220 -178 -502 -178q-225 0 -344 131q-93 98 -93 234q0 48 11 100q15 83 59 160l37 -9q-53 -121 -59 -151q-11 -50 -11 -96q0 -121 78 -211q104 -125 305 -125 q226 0 441 164q193 147 301 358q-204 -137 -393 -137q-217 0 -332 158q-74 103 -74 234q0 57 14 118q44 214 205 362q-374 -52 -663 -301q-290 -250 -361 -585zM1202 1192q-12 -57 -12 -109q0 -124 67 -221q94 -149 308 -149q126 0 217 45q83 37 192 125l13 55q16 73 16 139 q0 178 -115 303q-155 168 -458 168q-181 -144 -228 -356z" />
<glyph unicode="U" horiz-adv-x="2867" d="M410 963q80 376 456 651q381 276 795 276q353 0 559 -188q169 -155 169 -375q0 -65 -15 -137q-23 -113 -72 -207q-65 -113 -244 -371l-213 -303l-147 -221q-76 -82 -92 -156q-3 -15 -3 -28q0 -64 74 -64q168 0 658 772l202 322q158 248 361 414q254 211 502 211 q78 0 125 -33q46 -32 46 -78q0 -12 -3 -25q-18 -92 -111 -92q-33 0 -47.5 13.5t-9.5 39.5l12 54q2 11 2 21q0 59 -78 59q-215 0 -508 -437q-83 -127 -334 -592l-155 -288q-93 -184 -115 -295q-9 -43 -9 -77q0 -30 7 -52q21 -72 94 -72q149 0 279 201l35 -19 q-163 -227 -324 -227q-152 0 -205 152q-25 69 -25 146q0 60 15 124q3 15 23 76q9 22 17.5 46t10.5 29q-136 -193 -203 -260q-158 -174 -276 -174q-101 0 -139 97q-19 52 -19 107q0 35 8 71q29 141 252 436l203 264q247 323 287 516q13 60 13 115q0 181 -142 303 q-169 150 -463 150q-397 0 -760 -269q-350 -268 -430 -637q-16 -77 -16 -148q0 -183 108 -327q150 -211 453 -211q188 0 371 86t317 236l37 -17q-143 -160 -335 -249t-396 -89q-327 0 -498 220q-122 152 -122 351q0 76 18 159z" />
<glyph unicode="V" horiz-adv-x="2598" d="M418 903q79 378 461 651q375 269 792 269q343 0 520 -195q132 -140 132 -344q0 -77 -19 -162q-29 -141 -78 -241q-1 -11 -121 -269q1 6 -10 -16q-23 -48 -113 -260q-72 -168 -106 -336q-11 -51 -10 -90q0 -26 4 -47q217 479 581 928q428 536 848 776q239 133 398 133 q63 0 91 -22q21 -16 21 -44q0 -9 -2 -20q-8 -42 -48.5 -75.5t-84.5 -33.5q-66 0 -92 51l-18 33q-25 25 -52 25q-112 0 -374 -197q-199 -152 -334 -289q-588 -594 -889 -1284l-33 -57l-31 -10q-81 166 -81 337q0 77 16 156q26 135 166 443q164 355 207 549q16 71 16 132 q0 159 -104 261q-138 135 -414 135q-407 0 -752 -262t-424 -633q-17 -83 -17 -158q0 -183 101 -323q156 -211 461 -211q290 0 549 192t315 457q11 49 11 96q0 124 -78 228q-108 147 -301 147q-168 0 -363 -133l-8 33q207 133 377 133q217 0 332 -158q78 -108 78 -241 q0 -54 -13 -111q-59 -279 -326 -479q-272 -201 -573 -201q-329 0 -506 219q-120 150 -120 352q0 79 18 166z" />
<glyph unicode="W" horiz-adv-x="3127" d="M434 899q76 364 428 645q354 279 752 279q332 0 514 -191q134 -140 133 -341q0 -71 -16 -150q-27 -126 -109 -326l-115 -274q-174 -408 -202 -541q-12 -50 -11 -94q0 -28 4 -53q224 528 814 1230l49 58l32 -15l-137 -352q-29 -62 -157 -375q-99 -240 -129 -381 q-8 -41 -8 -82.5t8 -82.5q203 448 493 833q333 459 690 733q336 262 578 262q49 0 84 -18q38 -18 38 -51q0 -6 -1 -13q-10 -41 -53 -70.5t-93 -29.5q-59 0 -88 57q-15 43 -51 43q-162 0 -477 -278q-233 -200 -408 -406q-230 -281 -397 -548q-208 -327 -301 -580l-21 -10 q-82 162 -82 336q0 83 19 170q40 187 194 485l41 57q-34 -38 -49 -57q-389 -491 -577 -981l-27 -10q-80 162 -80 334q0 85 19 172q26 120 80 241l124 283q146 334 172 448q14 69 14 130q0 162 -102 266q-142 139 -417 139q-390 0 -717 -274q-317 -267 -393 -623 q-19 -92 -19 -174q0 -173 84 -305q142 -213 445 -213q283 0 524 188q239 185 299 451q11 54 11 106q0 116 -58 215q-89 156 -285 156q-143 0 -350 -127l-10 27q183 133 368 133q213 0 314 -168q65 -106 65 -234q0 -56 -12 -117q-59 -271 -318 -469q-257 -196 -555 -196 q-314 0 -477 227q-107 151 -107 340q0 79 19 166z" />
<glyph unicode="X" horiz-adv-x="2926" d="M287 670q74 344 391 606q327 271 702 274q268 244 602 244q330 0 480 -197q105 -132 105 -319q0 -80 -19 -170l-4 -29q43 57 57 70q447 459 750 459q63 0 107 -36q35 -29 35 -67q0 -10 -3 -22q-8 -46 -47.5 -84.5t-87.5 -38.5q-82 0 -82 68q0 14 4 32q1 7 9 29t9 29 q3 17 -7 24.5t-34 7.5q-116 0 -299 -125q-166 -113 -250 -215l-122 -145q-17 -12 -54 -49l-16 -76l-49 -170l-58 -240q-28 -86 -49 -170q-18 -68 -53 -217q-26 -122 -26 -204q0 -40 6 -70q24 -143 196 -143q111 0 248 110l25 -16q-136 -133 -297 -133q-227 0 -316 170 q-48 91 -48 210q0 71 17 152q29 129 138 479q-136 -149 -248 -295q-238 -310 -414 -434q-241 -174 -563 -174q-405 0 -610 254q-146 180 -146 425q0 93 21 196zM330 637q-18 -87 -18 -168q0 -225 143 -399q199 -240 561 -240q306 0 530 172q153 145 219 217q214 225 215 227 q80 97 199 234l96 108q64 178 117 422q17 80 17 149q0 139 -68 240q-115 160 -373 160q-274 0 -536 -209q9 9 32 9q281 0 434 -185q120 -150 120 -360q0 -36 -3 -74q79 82 166 225h33q-84 -166 -211 -284q-67 -271 -289 -457q-232 -197 -524 -197q-213 0 -340 133 q-90 99 -90 234q0 45 10 94q19 87 61 158l39 -6q-45 -69 -61 -152q-10 -45 -10 -87q0 -121 86 -214q115 -121 305 -121q240 0 457 178q193 159 288 387q-204 -133 -381 -133q-213 0 -321 150q-71 101 -71 231q0 53 12 111q26 133 172 317q-361 -35 -656 -290 q-293 -255 -360 -580zM1208 1180q-10 -47 -10 -91q0 -121 76 -219q101 -131 301 -131q209 0 379 150l10 51q13 61 13 118q0 164 -111 290q-150 170 -410 170h-55q-156 -163 -193 -338z" />
<glyph unicode="Y" horiz-adv-x="2260" d="M289 705q61 294 282 512q206 206 543 321q238 277 582 277q210 0 346 -103q117 -91 117 -224q0 -36 -9 -75q-37 -171 -243 -397q-70 -70 -127 -133q1 6 -4 -2q-8 -10 -35 -56q133 42 323 183l23 -17q-155 -146 -385 -217q-63 -108 -72 -156q-4 -23 -4 -43q0 -33 12 -57 q27 -47 88 -47q147 0 328 309l123 203q124 207 340 387q254 211 465 211q95 0 153 -37q55 -38 55 -97q0 -14 -3 -28q-7 -35 -40 -59.5t-71 -24.5q-60 0 -60 53q0 12 3 25q3 4 5.5 11.5t8 24.5t10.5 32q7 32 -15 47.5t-73 15.5q-210 0 -401 -221q-146 -173 -238 -391 l-94 -227q-390 -916 -1186 -916q-405 0 -620 277q-149 194 -149 441q0 95 22 198zM334 662q-18 -86 -18 -168q0 -221 133 -406q187 -264 538 -264q522 0 918 688q-101 -76 -185 -76q-132 0 -190 88q-36 56 -36 130q0 37 9 77h-55q-253 0 -391 150q-103 112 -103 265 q0 55 13 114q21 97 94 221q-274 -112 -477 -336q-195 -227 -250 -483zM1008 1260q-12 -57 -12 -109q0 -145 94 -252q125 -143 364 -143l21 4q32 4 36 4q60 163 232 338l151 158q143 146 166 260q5 23 5 45q0 99 -103 159q-108 60 -260 60q-319 0 -533 -230q115 33 256 33 q140 0 238 -33q84 -26 201 -98l-25 -37q-199 135 -420 135q-129 0 -297 -55q-87 -112 -114 -239z" />
<glyph unicode="Z" horiz-adv-x="2936" d="M291 653q83 380 409 639q328 264 740 264q134 0 241 -43q279 289 652 289q121 0 231 -39l211 -86q259 -112 424 -112q164 0 328 194l39 -8q-97 -135 -250 -225q-166 -94 -324 -94q-138 -100 -223 -191q-108 -125 -170 -225l-141 -223q-146 -228 -277 -394 q-170 -216 -354 -344q282 -123 514 -123q145 0 276 70q152 84 179 205q9 41 -27 41q-6 0 -62 -17q-50 -16 -63 -16q-87 0 -87 66q0 12 3 26q12 52 56.5 89.5t97.5 37.5q81 0 118 -76q20 -43 20 -92q0 -25 -5 -51q-41 -179 -224 -307q-186 -131 -382 -131q-202 0 -512 211 q-359 -211 -705 -211q-400 0 -608 258q-146 182 -146 424q0 93 21 194zM342 629q-19 -89 -19 -173q0 -220 134 -397q186 -247 547 -247q262 0 606 258q-196 152 -355 178q-79 -15 -104 -15q-38 0 -55.5 8t-14.5 23q6 33 99 33q56 0 84 -14q275 77 460 247q185 173 238 420 q14 64 14 122q0 266 -286 401q-38 -58 -45 -93q-2 -10 -2 -19q0 -38 45 -38h49q35 -1 57 -29q16 -21 16 -46q0 -9 -2 -19q-7 -36 -47.5 -63t-83.5 -27q-67 0 -94 59q-15 33 -15 71q0 22 5 44q18 90 84 168l-15 6q-84 37 -200 37q-384 0 -711 -277q-312 -263 -389 -618z M1323 264q65 -13 174 -63l137 -62q0 -2 29 -18q259 244 541 610q201 258 329 381q171 163 404 320q-180 24 -477 161q-160 71 -213 90q-62 19 -133 19q-195 0 -396 -195q311 -143 311 -435q0 -66 -16 -140q-53 -246 -237 -418q-178 -169 -453 -250z" />
<glyph unicode="[" horiz-adv-x="937" d="M-117 -655l2 14l1401 2359h404v-16l-21 -39l-16 -10h-244l-1333 -2245h250l2 -16l-23 -37l-22 -10h-400z" />
<glyph unicode="\" horiz-adv-x="755" d="M399 -274l389 1910l17 9h69l11 -13l-340 -1906l-23 -15h-116z" />
<glyph unicode="]" horiz-adv-x="937" d="M-315 -659l2 18l22 39l15 10h243l1327 2243h-245l-9 18l29 37l18 12h402l-4 -16l-1399 -2361h-401z" />
<glyph unicode="^" horiz-adv-x="2252" d="M643 899l700 563h185l459 -563h-99l-479 449l-672 -449h-94z" />
<glyph unicode="_" horiz-adv-x="1128" d="M-100 -481l20 100h1127l-21 -100h-1126z" />
<glyph unicode="`" horiz-adv-x="1128" d="M737 1010q9 49 70 49q36 0 57 -55l82 -224h-61l-127 172q-24 35 -21 58z" />
<glyph unicode="a" horiz-adv-x="923" d="M29 201q44 198 303 381q176 123 360 123q105 0 189 -41l6 -11v-6q-7 -23 -80 -164l-170 -317q-25 -42 -31 -70q-2 -7 -1 -13q0 -28 36 -28q95 0 584 498q-2 -31 0 -31q-10 -36 -109 -133q-247 -238 -323 -299q-130 -106 -228 -106q-93 0 -93 71q0 13 3 29q11 53 115 229 q-276 -325 -422 -325q-88 0 -129 65q-17 37 -17 83q0 31 7 65zM160 143q-4 -19 -4 -34q0 -58 55 -58q103 0 311 248q144 180 244 330q-36 28 -92 28q-114 0 -271 -157q-213 -219 -243 -357z" />
<glyph unicode="b" horiz-adv-x="950" d="M178 258q70 327 486 827q212 255 356 332l8 -4q8 -14 8 -39t-8 -61q-61 -281 -250 -541q-148 -202 -442 -465l-8 -41l-6 -16v-6q-10 -46 -10 -82q0 -113 100 -113q108 0 231 141q-12 36 -12 76q0 29 6 60q47 218 225 350h8q14 -27 14 -61q0 -21 -5 -44 q-46 -211 -179 -376q15 -50 60 -50q64 0 184 105q117 101 307 305q3 -5 3 -16q0 -7 -1 -15q-10 -37 -96 -129q-285 -299 -409 -299q-64 0 -91 47q-167 -159 -309 -159q-122 0 -160 86q-20 41 -20 99q0 40 10 89zM369 395q423 373 493 709q11 51 11 95q0 22 -3 42 q-257 -242 -501 -846z" />
<glyph unicode="c" horiz-adv-x="802" d="M70 231q35 161 209 310q203 170 378 170q77 0 119 -33q40 -29 41 -75q0 -13 -4 -28q-10 -53 -60.5 -87.5t-111.5 -34.5q-44 0 -59 30q91 36 106 105q3 13 3 24q0 52 -60 52q-86 0 -191 -99q-74 -74 -133 -168q-64 -98 -82 -184q-7 -33 -7 -60q0 -120 147 -120 q287 0 751 522q3 -11 3 -19q0 -4 -1 -6q-11 -45 -108 -147q-394 -406 -719 -406q-123 1 -185 71q-44 50 -43 121q0 29 7 62z" />
<glyph unicode="d" horiz-adv-x="915" d="M33 190q40 193 256 363q196 152 358 152q32 0 111 -29l284 573q12 25 21 34t29 13l92 9q19 0 16 -19q0 -4 -5 -13t-5 -11l-549 -1080q-27 -49 -33 -80q-2 -11 -2 -19q0 -34 29 -34q45 0 190 127q148 128 385 371q2 -10 2 -17t-2 -12q-9 -44 -202 -231 q-183 -176 -250 -224q-112 -81 -199 -81q-95 0 -95 68q0 11 3 24q12 59 94 205q-249 -295 -387 -295q-93 0 -133 61q-15 33 -15 78q0 31 7 67zM162 143q-3 -18 -3 -33q0 -61 60 -61q112 0 293 236q128 162 211 321q-24 49 -72 49q-74 0 -207 -118q-241 -216 -282 -394z" />
<glyph unicode="e" horiz-adv-x="796" d="M72 231q36 164 207 316q185 164 358 164q77 0 124 -38q37 -30 37 -75q0 -13 -3 -27q-27 -124 -238 -235q-146 -79 -336 -129q-7 -32 -7 -58q0 -116 136 -116q173 0 420 198q169 136 340 328q2 -9 2 -15t-2 -9q-12 -61 -135 -181q-377 -377 -694 -377q-123 0 -179 70 q-38 48 -38 117q0 32 8 67zM231 254q148 30 269 113q140 96 164 215q3 14 3 25q0 55 -61 55q-114 0 -235 -160q-94 -123 -140 -248z" />
<glyph unicode="f" horiz-adv-x="653" d="M-109 -586q-8 14 -8 46q0 57 25 171q41 194 211 533q-56 29 -83 49t-24 31q0 2 15 16l39 43q9 12 20 12q17 0 25 -8l53 -35q439 949 702 1160h11q21 -27 21 -85q0 -55 -19 -139q-91 -427 -506 -753q-39 -121 -113 -246q57 -51 156 -51q113 0 243 106q102 85 322 316 q-2 -6 -2 -15l-2 -12q-12 -54 -129 -168q-168 -164 -252 -219q-125 -78 -244 -78q-86 0 -147 43q16 -100 16 -181q0 -69 -12 -124q-59 -279 -311 -416zM-63 -477q178 106 225 315q11 53 11 108q0 37 -5 74q-181 -274 -223 -458zM420 553q277 224 336 491q12 59 12 112 q0 49 -10 93q-51 -77 -146 -286q-129 -290 -192 -410z" />
<glyph unicode="g" horiz-adv-x="927" d="M-35 -522q53 247 424 440q40 141 205 404q-261 -322 -430 -322q-88 0 -125 63q-17 35 -17 80q0 28 7 60q41 190 250 344q217 158 419 158q190 0 190 -52q0 -3 -1 -6q-9 -42 -129 -262l-219 -403q256 140 692 573q1 -3 -2 -27q-8 -42 -105 -133q-370 -350 -610 -477 q-183 -384 -532 -508l-13 4q-8 13 -8 33q0 14 4 31zM82 -498q186 79 295 357q-253 -125 -291 -299q-5 -24 -5 -43q0 -8 1 -15zM160 156q-4 -17 -4 -31q0 -57 59 -57q107 0 307 237q134 157 240 320q-19 32 -84 32q-97 0 -248 -133q-235 -210 -270 -368z" />
<glyph unicode="h" horiz-adv-x="1028" d="M23 12l12 31l223 430q136 266 303 512q244 358 418 434h6q26 -33 26 -88q0 -29 -7 -63q-64 -306 -560 -703l-157 -313q422 446 575 446q56 0 84 -34q21 -24 20 -57q0 -13 -3 -27q-9 -41 -86 -172l-119 -205q-37 -59 -45 -101q-3 -17 6.5 -25.5t32.5 -8.5q119 0 577 479 q0 -25 -2 -35q-12 -54 -215 -236q-321 -288 -438 -288q-108 0 -108 83q0 17 5 38q9 44 134 251q110 184 118 220q2 8 2 14q0 29 -34 29q-96 0 -388 -310q-91 -99 -186 -225q-59 -77 -84 -80l-88 -12q-2 0 -4 -2h-6q-13 0 -13 12q0 3 1 6zM494 657q314 255 366 504q9 41 9 72 t-9 53q-86 -74 -176 -237q-64 -108 -190 -392z" />
<glyph unicode="i" horiz-adv-x="557" d="M63 113q10 37 62 131l229 403q19 32 52 35l86 16h8q13 0 10 -16l-6 -12l-246 -430q-46 -85 -57 -134q-2 -10 -3 -19q0 -38 46 -38q130 0 624 512v-26q-9 -48 -166 -199q-359 -346 -534 -346q-110 0 -110 85q0 17 5 38zM516 991q37 43 47 43h1q5 0 20 -8q16 -10 30 -20 l15 -9q33 -16 34 -31q0 -1 -1 -3q-18 -93 -64 -93q-28 0 -74 19q-26 9 -38 21q-11 10 -11 21q0 15 41 60z" />
<glyph unicode="j" horiz-adv-x="546" d="M-174 -440q67 314 217 446q33 110 102 252l201 395q20 36 49 39l92 15h9q19 0 16 -19q-2 -5 -5 -12l-3 -6l-402 -744q229 116 764 627q3 -13 3 -20q0 -3 -1 -5q-8 -47 -163 -186q-412 -370 -631 -479l-168 -316q-55 -102 -76 -127l-4 2q-9 25 -9 59.5t9 78.5zM530 991 q34 43 48 43q6 0 13.5 -4.5t28.5 -17.5t48 -27q9 -7 9 -17q0 -2 -1 -5q-18 -93 -62 -93q-27 0 -73 19q-26 10 -37 21q-10 10 -10 20q0 18 36 61z" />
<glyph unicode="k" horiz-adv-x="1032" d="M20 27l338 647q114 220 254 411q194 259 361 340l12 -2q22 -24 23 -73q0 -30 -9 -70q-64 -313 -553 -709l-161 -323q399 457 622 457q61 -1 96 -35q26 -26 26 -62q0 -13 -3 -26q-30 -140 -405 -281q27 -225 122 -225q125 0 594 483q2 -5 1.5 -12t-1.5 -17 q-8 -36 -129 -157q-385 -379 -530 -379q-80 0 -141 104q-48 78 -48 141q0 16 3 31q3 22 83 52q278 109 299 213q8 35 -10.5 53t-62.5 18q-139 0 -461 -354q-102 -108 -160 -209q-23 -33 -63 -41l-80 -12q-2 0 -4 -2h-8q-11 0 -15 4q-3 3 -2 7q0 10 12 28zM494 664 q312 248 362 477q12 56 12 107q0 28 -4 55q-83 -58 -170 -224q-46 -76 -200 -415z" />
<glyph unicode="l" horiz-adv-x="712" d="M168 231q22 104 170 416q115 245 301 492q167 225 276 284l17 2q17 -19 17 -62q0 -35 -11 -85q-92 -434 -563 -875q-44 -97 -58 -172q-11 -47 -11 -82q0 -94 81 -94q101 0 340 213q77 67 293 293l-2 -37q-9 -37 -160 -188q-360 -354 -536 -354q-105 0 -146 77 q-17 40 -17 91q0 38 9 81zM401 485q310 292 369 572q18 94 21 186q-238 -302 -390 -758z" />
<glyph unicode="m" horiz-adv-x="1468" d="M0 2q3 18 8 29l338 616q13 23 41 29l94 18h11q17 0 14 -18l-6 -12l-228 -416q119 147 242 270q190 187 303 187q101 0 101 -72q0 -13 -3 -27q-9 -52 -178 -362q402 454 574 454q92 0 92 -79q0 -17 -4 -37q-8 -42 -64 -136l-108 -182q-68 -121 -74 -151q-1 -7 -1 -13 q0 -32 42 -32q56 0 199 122q104 89 381 363q0 -1 -1 -4.5t-2 -10.5l-2 -14q-9 -45 -151 -184q-143 -141 -295 -262q-128 -90 -223 -90q-48 0 -74 30q-19 23 -20 56q0 10 2 22q18 83 133 264q115 179 125 222q1 6 1 12q0 29 -40 29q-99 0 -434 -379q-79 -94 -140 -176 q-47 -65 -71 -68l-82 -10h-6q-24 0 -21 10q4 19 10 27l254 491q27 50 33 70q9 41 -29 41q-97 0 -407 -363q-68 -77 -148 -194q-52 -67 -67 -70l-101 -12h-6q-12 0 -12 8v4z" />
<glyph unicode="n" horiz-adv-x="1019" d="M0 8q3 20 8 25l328 596q35 47 63 53l82 16q2 2 19 2q13 0 10 -18l-6 -12l-248 -443q448 478 608 478q54 1 82 -33q20 -24 20 -57q0 -13 -3 -27q-15 -61 -101 -203q-147 -247 -153 -279q-4 -17 4 -24.5t30 -7.5q102 0 578 479l2 -29q-8 -40 -215 -235q-322 -301 -444 -301 q-58 0 -86 36q-21 26 -20 60q0 14 3 29q9 48 160 305q93 162 96 170q3 15 -5 22.5t-28 7.5q-86 0 -378 -292q-140 -140 -211 -244l-33 -49q-25 -25 -49 -31l-86 -8h-9q-18 0 -18 14z" />
<glyph unicode="o" horiz-adv-x="944" d="M63 233q35 172 226 322q191 156 375 156q110 0 167 -78q37 -54 37 -125q0 -28 -6 -59q-21 -108 -141 -252q3 -41 49 -41q52 0 170 106q110 95 324 309q0 -30 0 -24q-9 -43 -131 -162q-111 -111 -254 -229q-115 -80 -170 -80q-51 0 -78 37q-181 -138 -340 -138 q-131 0 -193 70q-43 49 -43 122q0 31 8 66zM219 197q-9 -40 -9 -71q0 -108 112 -108q111 0 274 172q-3 15 -3 32q0 22 5 44q27 127 164 258v7q0 137 -117 137q-78 0 -188 -90q-75 -66 -138 -158q-81 -123 -100 -223z" />
<glyph unicode="p" horiz-adv-x="985" d="M-162 -598q-2 23 -2 48q0 85 23 198q60 280 291 561q41 105 147 352q53 118 98 127l101 19q15 0 12 -21l-2 -10l-115 -236q277 271 438 271q84 0 121 -49q26 -33 26 -81q0 -21 -5 -46q-49 -226 -447 -408q27 -59 115 -59q201 0 670 507q1 -5 1 -11.5t-1 -14.5 q-12 -58 -172 -209q-171 -163 -263 -223q-180 -121 -313 -121q-63 0 -133 27q-47 17 -67.5 36.5t-16.5 42.5q3 18 64 43l77 33q274 129 314 322q4 18 4 33q0 73 -86 73q-131 0 -379 -287q-364 -783 -490 -917h-10zM-92 -434q71 95 196 514q-140 -158 -192 -412 q-7 -36 -7 -66q0 -19 3 -36z" />
<glyph unicode="q" horiz-adv-x="907" d="M23 207q35 158 213 311q217 187 438 187q101 0 148 -15q43 -12 43 -37q0 -3 -1 -6q-6 -26 -151 -289l-131 -237q25 -19 61 -19q85 0 303 197q44 39 262 260q5 -9 5 -20q0 -5 -1 -11q-9 -45 -149 -176q-195 -179 -250 -219q-101 -76 -178 -76q-35 0 -53 6l-4 -24 q-70 -331 -472 -629l-8 4q-1 4 -1 10q0 17 7 54q29 127 146 334q75 138 287 467q-241 -283 -381 -283q-87 0 -125 65q-16 34 -16 78q0 32 8 68zM143 156q-4 -20 -4 -36q0 -59 62 -59q159 0 540 568q-25 28 -82 28q-101 0 -217 -98q-258 -215 -299 -403zM147 -496 q147 100 249 244t136 295l3 12q-344 -432 -388 -551z" />
<glyph unicode="r" horiz-adv-x="727" d="M240 109q31 147 333 464q-155 -79 -227 -79q-76 0 -76 52q0 9 2 19q13 59 63 109.5t109 54.5l2 -6q-34 -48 -38 -66q-2 -8 -2 -15q0 -36 55 -36q52 0 284 70l7 -6q-354 -482 -369 -555q-2 -10 -2 -18q0 -40 51 -40q62 0 211 131q89 80 395 383q2 -4 2 -10.5t-2 -13.5 q-6 -35 -49 -84l-112 -111q-204 -200 -302 -278q-127 -92 -217 -92q-122 0 -122 90q0 17 4 37z" />
<glyph unicode="s" horiz-adv-x="811" d="M20 94q9 43 58 68q49 22 92 22q32 0 59 -12v-6q-50 -24 -59 -70q-2 -8 -2 -15q0 -54 104 -54q74 0 136 30q69 34 84 99q2 12 2 24q0 33 -19 62l-84 77q-63 52 -100 89q-31 33 -31 73q0 9 2 19q20 96 156 159q113 52 229 52q137 0 137 -74q0 -10 -2 -21q-9 -45 -67 -75 q-51 -26 -109 -29l-4 12q52 36 60 76q6 31 -14 46.5t-66 15.5q-57 0 -105 -25q-57 -27 -67 -76q-2 -8 -2 -17q0 -38 34 -71q11 -8 27 -21t40 -33t44 -36q85 -69 84 -139q0 -13 -2 -25q-12 -60 -92 -125q181 21 583 481q5 -4 5 -13q0 -4 -1 -9q-15 -74 -186 -231 q-144 -139 -248 -203q-130 -80 -258 -92q-122 -45 -219 -45q-83 0 -133 20q-68 27 -68 76q0 8 2 16z" />
<glyph unicode="t" horiz-adv-x="569" d="M76 109q12 64 88 204l158 293h-125l2 12l12 29l16 10h127l148 265q21 41 55 47l82 16h12q9 0 6 -14l-2 -15l-155 -299h116v-10l-14 -31l-10 -10h-121l-223 -418q-28 -53 -35 -92q-1 -7 -1 -12q0 -35 46 -35q143 0 610 510q3 -9 3 -18q0 -5 -1 -11q-12 -49 -145 -182 q-372 -366 -528 -366q-125 0 -125 91q0 16 4 36z" />
<glyph unicode="u" horiz-adv-x="1013" d="M41 90q6 37 57 125l244 428q12 21 20.5 28t28.5 11l96 16h13q13 0 10 -16q-2 -5 -5 -12l-3 -6l-281 -474q-34 -69 -37 -88q-2 -7 -1 -13q0 -28 36 -28q72 0 281 191q162 155 243 248q15 13 99 125q39 51 69 57l88 18h7q19 0 16 -18q0 -1 -10 -18l-273 -467 q-32 -52 -39 -91q-2 -8 -2 -14q0 -29 35 -29q109 0 588 510q7 -12 7 -21q0 -3 -1 -5q-9 -48 -178 -217q-346 -346 -496 -346q-98 0 -98 81q0 17 4 37q17 73 180 340q-440 -458 -606 -458q-95 0 -95 75q0 14 3 31z" />
<glyph unicode="v" horiz-adv-x="948" d="M201 240q22 98 104 346q21 64 27 67q10 17 39 23l88 18l2 2q2 0 4 2q20 0 14 -28q-18 -80 -71 -211q-62 -170 -72 -221q-11 -51 -11 -87q0 -90 68 -90q108 0 240 170q-1 18 -1 33q0 36 5 62q21 102 123 204q85 94 198 158l15 -2q2 -7 -2 -33q-40 -192 -279 -428 q0 -82 72 -82q59 0 182 105q49 41 303 299q5 -3 5 -12q0 -7 -3 -17q-9 -39 -161 -188q-240 -234 -349 -234q-72 0 -96 82q-193 -196 -338 -196q-119 0 -119 145q0 49 13 113z" />
<glyph unicode="w" horiz-adv-x="1458" d="M88 121q8 43 53 131l203 401q9 26 41 29l94 12q3 0 8 2l5 2q15 0 12 -12q2 8 -2 1q-3 -6 -10 -23l-218 -416q-43 -82 -51 -121q-3 -12 -3 -22q0 -44 54 -44q117 0 416 355q7 11 51.5 72.5t81.5 115.5q43 70 88 76l90 14h11q9 0 6 -12l-6 -25l-195 -362q-54 -100 -67 -162 q-2 -14 -2 -25q0 -59 65 -59q102 0 328 203q2 50 10 90q21 101 86.5 197.5t155.5 152.5l12 -4q11 -16 11 -44q0 -22 -7 -52q-35 -152 -215 -344q-2 -15 -2 -28q0 -77 76 -77q113 0 489 406q1 -3 -2 -27q-11 -49 -158 -196q-230 -230 -344 -230q-102 0 -114 105 q-269 -219 -408 -219q-120 0 -120 102q0 21 5 47q13 62 123 281q-366 -428 -549 -428q-107 0 -107 94q0 19 5 43z" />
<glyph unicode="x" horiz-adv-x="983" d="M-100 -23q18 84 120 142l3 -4q-11 -43 -12 -43t-1 4q-1 -8 -1 -14q0 -37 42 -37q41 0 121 71l197 183l-105 374v11q3 15 23 18l88 12q1 0 4 2t6 2q12 0 18 -24l78 -273l217 193q119 104 193 104q41 0 61 -30q14 -22 13 -50q0 -11 -2 -24q-15 -75 -101 -158 q-71 -68 -166 -110l-4 8q143 119 164 213q2 9 2 16q0 37 -51 37q-50 0 -203 -141l-106 -99l47 -163q37 -129 123 -129q95 0 327 206q189 181 285 279q2 -5 2 -12t-2 -17q-8 -36 -166 -188q-364 -352 -510 -352q-94 0 -153 86q-38 58 -64 168l-223 -205q-139 -127 -207 -127 q-60 0 -60 49q0 10 3 22z" />
<glyph unicode="y" horiz-adv-x="1013" d="M53 -596q-4 17 -4 36q0 23 6 50q47 221 428 442q22 63 234 471q-361 -403 -565 -403q-95 0 -95 81q0 17 4 38q3 26 56 121l229 413q17 26 53 29l99 10q11 0 8 -10q-2 -4 -8 -18l-260 -467q-26 -50 -33 -84q-1 -6 -1 -12q0 -27 38 -27q122 0 440 348q71 77 156 192 q50 65 73 68l101 12q15 0 12 -12q-4 -10 -19 -34.5t-43.5 -71t-54.5 -91.5q-145 -240 -282 -520q277 179 688 584q2 -14 2 -27q-9 -44 -174 -196q-349 -312 -549 -430q-199 -391 -526 -494zM170 -438q-4 -17 -4 -35t4 -37q188 80 299 381q-264 -144 -299 -309z" />
<glyph unicode="z" horiz-adv-x="802" d="M0 -6q0 10 2 14l102 129q19 25 41 25h25l465 379q-167 34 -201 34q-44 0 -90 -49q-43 -49 -57 -49q-34 0 -31 21q2 12 23 43q8 12 14 23t8.5 16t3.5 6q42 82 55 90q23 29 74 29q15 0 115 -17q162 -29 221 -35q70 58 94 58q13 0 20 -3t5 -8q-3 -13 -51 -53l-619 -497 q261 -66 305 -66q79 0 221 121q107 91 355 348q1 -5 1 -11q0 -14 -5 -32q-6 -33 -209 -227q-324 -306 -459 -306q-10 0 -125 23q-98 21 -199 33q-55 -49 -92 -49q-12 0 -12 7v3z" />
<glyph unicode="{" horiz-adv-x="1353" d="M375 668l14 69q222 15 313 84q95 71 136 262l55 258q52 243 184 334q128 84 398 84h16l-12 -59q-200 0 -283 -68q-80 -66 -121 -252l-37 -172q-56 -257 -145 -352q-106 -115 -358 -156q234 -40 292 -153q49 -100 -4 -352l-39 -177q-37 -177 17 -243q56 -65 254 -68 l-13 -57h-16q-270 0 -360 84q-97 90 -45 329l55 259q40 186 -27 260q-65 71 -274 86z" />
<glyph unicode="|" horiz-adv-x="1353" d="M467 -639l522 2456h144l-523 -2456h-143z" />
<glyph unicode="}" horiz-adv-x="1353" d="M162 -350l12 57q195 3 281 68q83 65 120 243l39 177q52 251 142 352q100 112 354 153q-233 40 -289 156q-45 95 8 352l37 172q38 179 -18 250q-55 70 -250 70l12 59h11q272 0 362 -84q97 -91 45 -334l-55 -258q-41 -192 28 -264q64 -67 273 -82l-14 -69 q-219 -15 -314 -86q-94 -70 -135 -260l-55 -259q-52 -242 -185 -331q-122 -82 -399 -82h-10z" />
<glyph unicode="~" horiz-adv-x="1875" d="M295 471l24 111q261 147 457 147q103 0 301 -67q219 -74 307 -74q181 0 457 162l-22 -113q-247 -143 -455 -143q-108 0 -309 67q-201 70 -299 70q-174 0 -461 -160z" />
<glyph />
<glyph unicode="&#xa1;" horiz-adv-x="749" d="M229 8l11 23l700 1032l21 -4l2 -12l-527 -1014q-14 -33 -49 -33l-141 -6q-9 0 -13.5 3.5t-3.5 10.5zM936 1249q9 47 82 47q105 0 96 -41q-21 -106 -51 -106q-6 0 -111 18q-31 0 -16 82z" />
<glyph unicode="&#xa2;" horiz-adv-x="1044" d="M299 535q46 215 285 380q134 93 295 99l106 227l78 27l-123 -258q124 -18 166 -66l-2 -16l-37 -35h-14q-72 69 -129 72l-326 -676q158 9 328 176h12l37 -49l-2 -8q-158 -152 -398 -164l-116 -244l-76 -23l125 263q-264 41 -209 295zM430 492q-37 -166 105 -201l321 678 q-97 -6 -182 -88q-200 -182 -244 -389z" />
<glyph unicode="&#xa3;" horiz-adv-x="1097" d="M-72 113q11 45 63.5 73.5t125.5 28.5q133 0 272 -74q116 147 166 230q-46 12 -78 12q-63 0 -143 -51l-8 16q113 70 219 70q11 0 39 -4l114 164q-9 -3 -26 -3q-122 0 -188.5 76.5t-41.5 188.5q27 139 203 254q172 112 369 112q40 0 92 -10l-8 -18q-33 8 -82 8 q-214 0 -365 -148q-123 -123 -149 -254q-19 -86 26.5 -137t139.5 -51q35 0 45 2q172 244 317 377q240 225 393 225q57 0 89 -43t20 -104q-30 -146 -268 -287q-183 -110 -340 -154q-44 -94 -136 -231q64 -21 121 -21q49 0 103 31l6 -16q-74 -45 -146 -45q-34 0 -116 10 q-127 -168 -285 -250q121 -74 193 -74q195 0 501 306l15 -13q-172 -169 -295.5 -241t-237.5 -72q-84 0 -209 78q-167 -78 -313 -78q-98 0 -153 33t-44 84zM-49 113q-8 -42 38.5 -70.5t127.5 -28.5q140 0 252 103q-144 78 -265 78q-58 0 -101.5 -24.5t-51.5 -57.5zM936 635 q226 64 416 272q120 132 135 197q15 76 -70 76q-204 0 -481 -545z" />
<glyph unicode="&#xa4;" horiz-adv-x="1802" d="M717 227l229 183q-94 137 -59 297q34 163 186 297l-164 180l47 35l160 -179q178 117 361 117t303 -117l239 179l31 -35l-235 -180q95 -133 61 -297t-188 -297l161 -183l-49 -34l-160 180q-174 -113 -354 -113t-305 113l-236 -180zM946 707q-34 -161 68 -281 q109 -115 284 -115q179 0 330 115q154 123 187 281q34 160 -68 280q-98 119 -277 119q-184 0 -337 -117t-187 -282z" />
<glyph unicode="&#xa5;" horiz-adv-x="946" d="M229 51q19 86 129 217q93 100 154 156l-18 2q-55 10 -68 10q-52 0 -135 -47l-8 17q103 63 188 63q14 0 61 -6l17 -4q10 8 22 19t29.5 27t30.5 27l10 23l-37 6q-20 3 -36.5 5.5t-23.5 3.5t-9 1q-51 0 -134 -47l-10 17q108 63 187 63q30 0 65 -6l21 -4l118 219 q63 116 70 158q24 112 -76 112q-130 0 -270 -110q-148 -120 -168 -223q-9 -52 49 -52q47 0 94.5 38.5t139.5 148.5l20 -6q-164 -203 -258 -203q-36 0 -56 21.5t-14 52.5q27 121 197 251q149 113 307 113q82 0 129.5 -43.5t34.5 -109.5q-6 -26 -37 -84l-88 -160l223 215 q197 188 334 188q66 0 104 -36t27 -87q-8 -41 -43 -70.5t-78 -29.5q-36 0 -57.5 22.5t-15.5 53.5q10 50 61 76q26 11 29 24q2 12 -6.5 18.5t-28.5 6.5q-115 0 -291 -176q-144 -144 -317 -353l16 -2h1h1h1l1 -1h2h1h1h1h1h1h1l1 -1h1h1h1h1h2h1h1l1 -1h1h1h1h1h1h1h1l1 -1h1 h1h1h1h1h1h1l1 -1h2l73 -9q34 0 90 29l4 -19q-77 -41 -139 -41q-70 0 -97 8l-18 5q-7 -11 -34.5 -43.5t-45.5 -57.5l16 -2q21 -3 43.5 -5.5t34.5 -4t22 -2.5t12.5 -1.5t0.5 -0.5q36 0 90 28l4 -18q-77 -41 -137 -41q-59 0 -98 8l-17 4q-208 -276 -231 -387q-7 -28 -4 -90 q-46 -16 -74 -16q-149 0 -119 145z" />
<glyph unicode="&#xa6;" horiz-adv-x="1128" d="M430 -346l160 754h121l-160 -754h-121zM645 674l162 758h121l-162 -758h-121z" />
<glyph unicode="&#xa7;" horiz-adv-x="1044" d="M182 23q18 85 105 100q83 15 86 -57q3 -46 -54 -74q-48 -28 -45 -53q0 -54 88 -54q100 0 189 74q93 72 111 166q18 82 -74 190q-56 66 -86 119q-22 42 -19 90q-3 30 2 60q16 70 78 143q66 81 262 205l25 14q-52 64 -37 141q27 124 172 236q149 113 287 113q83 0 135 -52 q62 -50 47 -118q-7 -41 -46 -71t-83 -30q-67 0 -70 58q3 44 76 90q28 16 25 45q0 55 -84 55q-13 0 -45 -4q-92 -17 -164 -78t-86 -133q-18 -88 90 -199q110 -107 113 -186q0 -3 -6 -45q-44 -201 -371 -397q43 -76 28 -148q-27 -122 -180 -239q-155 -119 -291 -119 q-80 0 -131 45q-62 47 -47 113zM631 618q0 -42 76 -133l73 -92q202 136 228 260q15 77 -70 178l-72 82q-204 -124 -231 -256q-4 -28 -4 -39z" />
<glyph unicode="&#xa8;" horiz-adv-x="1128" d="M616 858q21 111 56 111q4 0 112 -19q36 -6 21 -86q-9 -45 -92 -45q-106 0 -97 39zM977 858q21 111 55 111q8 0 113 -19q29 -6 14 -86q-9 -45 -86 -45q-105 0 -96 39z" />
<glyph unicode="&#xa9;" horiz-adv-x="1759" d="M586 578q68 311 364 534q302 225 641 225q290 0 453 -184q163 -186 104 -451q-64 -307 -362 -532q-296 -225 -631 -225q-294 0 -461 182q-166 181 -108 451zM616 582q-55 -261 101 -437q159 -176 444 -176q324 0 608 217q289 217 351 512q56 262 -105 439 q-156 176 -450 176q-314 0 -600 -221q-288 -220 -349 -510zM862 510q26 118 142.5 231.5t293.5 192.5q241 110 433 110q87 0 131 -40.5t32 -106.5q-20 -97 -137 -182q-118 -80 -235 -80q-51 0 -82 21.5t-25 52.5q3 10 8 10q7 -3 4 -6q-3 -51 62 -51q81 0 203 98 q127 102 141 182q18 84 -80 84q-177 0 -463 -221q-282 -221 -317 -385q-17 -80 27 -127t137 -47q214 0 487 276q32 29 37 29q7 0 4 -6q-6 -32 -152 -148q-212 -170 -387 -170q-140 0 -213 82q-76 81 -51 201z" />
<glyph unicode="&#xab;" horiz-adv-x="1875" d="M289 51l20 99h1321l-20 -99h-1321zM432 723l21 98h606l74 346h108l-74 -346h607l-21 -98h-606l-74 -346h-108l73 346h-606z" />
<glyph unicode="&#xad;" horiz-adv-x="970" d="M371 371l49 84l18 10h506l8 -12l-49 -93l-16 -6h-514z" />
<glyph unicode="&#xae;" horiz-adv-x="1759" d="M586 578q68 311 364 534q302 225 641 225q290 0 453 -184q163 -186 104 -451q-64 -307 -362 -532q-296 -225 -631 -225q-294 0 -461 182q-166 181 -108 451zM616 582q-55 -261 101 -437q159 -176 444 -176q324 0 608 217q289 217 351 512q56 262 -105 439 q-156 176 -450 176q-314 0 -600 -221q-288 -220 -349 -510zM721 377q7 41 40.5 66.5t76.5 25.5q69 0 57 -59q-6 -27 -33 -47.5t-57 -20.5q-61 0 -49 53q4 18 18 35q8 3 8 6q0 4 -6 4q-8 0 -23.5 -22t-19.5 -41q-12 -55 35 -94t123 -39q82 0 156 71q67 64 245 318 q143 198 463 362q-83 68 -215 68q-177 0 -366 -121q-186 -121 -213 -256q-24 -113 110 -113q43 0 103 17q15 6 18 6q8 0 8 -4q-3 -10 -49 -19q-52 -10 -86 -10q-87 0 -123 35t-22 104q35 153 213 265q175 112 389 112q142 0 266 -65q121 59 190 59q8 0 11 -1.5t2 -4.5 q0 -4 -25 -4q-64 3 -168 -57q111 -66 90 -170q-30 -147 -272 -174q91 -46 76 -130q-10 -44 -45 -116q-42 -85 -50 -119q-15 -78 52 -78q52 0 108 47q8 8 12 8q5 -4 3 -6q-9 -19 -54 -39q-44 -20 -78 -20q-66 0 -102.5 50t-21.5 118q10 44 57 131q42 77 45 98q7 30 -14 51 q-70 -4 -74 -4q-17 0 -28.5 1.5t-16.5 4.5t-4 7q3 10 41 10q44 0 82 -12q156 46 190 196q15 78 -29 125q-166 -112 -323 -362q-152 -252 -307 -328q-125 -64 -244 -64q-81 0 -133 43.5t-37 102.5z" />
<glyph unicode="&#xb1;" horiz-adv-x="1875" d="M289 51l20 99h1321l-20 -99h-1321zM432 723l21 98h606l74 346h108l-74 -346h607l-21 -98h-606l-74 -346h-108l73 346h-606z" />
<glyph unicode="&#xb4;" horiz-adv-x="1128" d="M698 780l359 246q44 33 76 33q52 0 43 -51q-6 -34 -74 -64l-344 -164h-60z" />
<glyph unicode="&#xb6;" horiz-adv-x="946" d="M-78 -84q12 59 59 98t105 39q53 0 82.5 -31.5t21.5 -76.5q-15 -65 -86 -80q-2 -2 -22 -2q-29 0 -47 -2q-59 -3 -68 -47q-7 -38 25.5 -73.5t75.5 -35.5q142 0 307 219q53 71 182 293l342 602q115 206 205 291q87 84 297 190q-87 43 -187 43q-170 0 -313 -131 q-184 -169 -231 -389q-27 -138 18 -200l-18 -21q-202 102 -156 322q41 183 234 303q223 143 469 143q120 0 225 -51q135 63 244 63q49 0 76.5 -22t21.5 -55q-7 -37 -54.5 -64t-103.5 -27q-82 0 -180 64q-39 -46 -55 -72q-60 -98 -99 -172l-504 -891q-123 -211 -223 -301 q-205 -178 -456 -178q-108 0 -160 70.5t-27 181.5zM270 -254q154 56 248 154q93 96 217 313l373 670q76 145 170 282q-144 -89 -252 -282l-358 -639q-129 -228 -205 -322q-72 -93 -193 -176zM1462 1300q104 -61 162 -61q43 0 81 20t44 46q4 26 -15 38.5t-63 12.5 q-85 0 -209 -56z" />
<glyph unicode="&#xb8;" horiz-adv-x="1128" d="M14 -311l23 35q121 -62 221 -62q127 0 148 92q9 41 -18.5 62.5t-90.5 21.5q-50 0 -86 -8l102 170h56l-60 -106h29q10 2 18 2h11q93 0 132.5 -37t24.5 -109q-30 -143 -239 -143q-170 0 -271 82z" />
<glyph unicode="&#xbb;" horiz-adv-x="1048" d="M158 68q4 15 35 34l321 228l-16 256q-2 16 -2 30q6 25 26 25q26 0 35 -35l92 -293l-428 -252q-30 -18 -47 -18q-22 0 -16 25zM492 68q4 12 36 34l324 228l-16 256q-4 20 -2 30q6 25 24 25q22 0 37 -35l88 -293l-428 -252q-24 -18 -43 -18q-26 0 -20 25z" />
<glyph unicode="&#xbf;" horiz-adv-x="1028" d="M315 248q27 126 166 291q11 11 52 53t117 119t157 159q157 163 217 275l10 4l25 -8l-2 -13q-47 -85 -238 -335q-309 -403 -344 -568q-40 -186 121 -186q205 0 369 344l10 8l24 -2l5 -10q-63 -159 -173 -266q-131 -125 -292 -125q-122 0 -185.5 74.5t-38.5 185.5z M999 1319q9 47 84 47q106 0 97 -41q-21 -104 -54 -104l-108 16q-34 9 -19 82z" />
<glyph unicode="&#xc0;" horiz-adv-x="2766" d="M309 686q73 351 383 612q322 273 703 273h73q256 256 625 256q317 0 465 -189q142 -183 78 -473q-37 -182 -166 -549q125 -27 166 -110l-31 -14q-54 79 -141 94q-90 -209 -148 -471q-88 -426 168 -426q165 0 203 170h29q-44 -203 -275 -203q-232 0 -297 215 q-49 166 0 393q29 142 99 307q-128 -48 -283 -79q-179 -329 -381 -488q-248 -199 -588 -199q-381 0 -575 271q-183 260 -107 610zM354 649q-67 -315 109 -559q181 -246 530 -246q295 0 527 191q168 143 350 442q-117 -18 -144 -18q-239 -213 -520 -213q-220 0 -340 135 q-119 137 -75 338q12 45 65 149l27 -6q-35 -62 -56 -151q-37 -172 66 -299q105 -123 295 -123q218 0 457 178q-90 29 -125 80l36 24q39 -62 117 -71q129 108 209 268q-125 -49 -225 -49q-220 0 -328 153q-103 145 -59 349q40 177 166 321q-391 -9 -703 -278 q-302 -259 -379 -615zM1303 1221q-40 -187 55 -326q103 -145 305 -145q121 0 250 69q33 107 35 119q52 243 -78 408q-124 161 -387 196q-146 -166 -180 -321zM1511 1571q280 -41 404 -217q133 -176 74 -441l-15 -69q199 177 281 346h37q-146 -267 -336 -385 q-90 -200 -189 -305l93 12q16 2 34 4l203 322q139 219 162 245q103 133 233 185q24 226 -94 368q-124 148 -368 148q-280 0 -519 -213zM1978 530q26 0 111 27q105 34 160 43q0 9 24.5 55.5t24.5 55.5l78 202q93 247 98 267l10 49q-127 -59 -297 -324q-65 -102 -209 -375z M2126 2136q9 49 69 49q37 0 58 -55l82 -223h-62l-127 172q-23 34 -20 57z" />
<glyph unicode="&#xc1;" horiz-adv-x="2766" d="M309 686q73 351 383 612q322 273 703 273h73q256 256 625 256q317 0 465 -189q142 -183 78 -473q-37 -182 -166 -549q125 -27 166 -110l-31 -14q-54 79 -141 94q-90 -209 -148 -471q-88 -426 168 -426q165 0 203 170h29q-44 -203 -275 -203q-232 0 -297 215 q-49 166 0 393q29 142 99 307q-128 -48 -283 -79q-179 -329 -381 -488q-248 -199 -588 -199q-381 0 -575 271q-183 260 -107 610zM354 649q-67 -315 109 -559q181 -246 530 -246q295 0 527 191q168 143 350 442q-117 -18 -144 -18q-239 -213 -520 -213q-220 0 -340 135 q-119 137 -75 338q12 45 65 149l27 -6q-35 -62 -56 -151q-37 -172 66 -299q105 -123 295 -123q218 0 457 178q-90 29 -125 80l36 24q39 -62 117 -71q129 108 209 268q-125 -49 -225 -49q-220 0 -328 153q-103 145 -59 349q40 177 166 321q-391 -9 -703 -278 q-302 -259 -379 -615zM1303 1221q-40 -187 55 -326q103 -145 305 -145q121 0 250 69q33 107 35 119q52 243 -78 408q-124 161 -387 196q-146 -166 -180 -321zM1511 1571q280 -41 404 -217q133 -176 74 -441l-15 -69q199 177 281 346h37q-146 -267 -336 -385 q-90 -200 -189 -305l93 12q16 2 34 4l203 322q139 219 162 245q103 133 233 185q24 226 -94 368q-124 148 -368 148q-280 0 -519 -213zM1565 1886l358 246q44 33 76 33q52 0 43 -51q-9 -34 -74 -64l-344 -164h-59zM1978 530q26 0 111 27q105 34 160 43q0 9 24.5 55.5 t24.5 55.5l78 202q93 247 98 267l10 49q-127 -59 -297 -324q-65 -102 -209 -375z" />
<glyph unicode="&#xc2;" horiz-adv-x="2766" d="M309 686q73 351 383 612q322 273 703 273h73q256 256 625 256q317 0 465 -189q142 -183 78 -473q-37 -182 -166 -549q125 -27 166 -110l-31 -14q-54 79 -141 94q-90 -209 -148 -471q-88 -426 168 -426q165 0 203 170h29q-44 -203 -275 -203q-232 0 -297 215 q-49 166 0 393q29 142 99 307q-128 -48 -283 -79q-179 -329 -381 -488q-248 -199 -588 -199q-381 0 -575 271q-183 260 -107 610zM354 649q-67 -315 109 -559q181 -246 530 -246q295 0 527 191q168 143 350 442q-117 -18 -144 -18q-239 -213 -520 -213q-220 0 -340 135 q-119 137 -75 338q12 45 65 149l27 -6q-35 -62 -56 -151q-37 -172 66 -299q105 -123 295 -123q218 0 457 178q-90 29 -125 80l36 24q39 -62 117 -71q129 108 209 268q-125 -49 -225 -49q-220 0 -328 153q-103 145 -59 349q40 177 166 321q-391 -9 -703 -278 q-302 -259 -379 -615zM1303 1221q-40 -187 55 -326q103 -145 305 -145q121 0 250 69q33 107 35 119q52 243 -78 408q-124 161 -387 196q-146 -166 -180 -321zM1511 1571q280 -41 404 -217q133 -176 74 -441l-15 -69q199 177 281 346h37q-146 -267 -336 -385 q-90 -200 -189 -305l93 12q16 2 34 4l203 322q139 219 162 245q103 133 233 185q24 226 -94 368q-124 148 -368 148q-280 0 -519 -213zM1759 1845l404 271h110l119 -271h-57l-142 183l-364 -183h-70zM1978 530q26 0 111 27q105 34 160 43q0 9 24.5 55.5t24.5 55.5l78 202 q93 247 98 267l10 49q-127 -59 -297 -324q-65 -102 -209 -375z" />
<glyph unicode="&#xc3;" horiz-adv-x="2766" d="M309 686q73 351 383 612q322 273 703 273h73q256 256 625 256q317 0 465 -189q142 -183 78 -473q-37 -182 -166 -549q125 -27 166 -110l-31 -14q-54 79 -141 94q-90 -209 -148 -471q-88 -426 168 -426q165 0 203 170h29q-44 -203 -275 -203q-232 0 -297 215 q-49 166 0 393q29 142 99 307q-128 -48 -283 -79q-179 -329 -381 -488q-248 -199 -588 -199q-381 0 -575 271q-183 260 -107 610zM354 649q-67 -315 109 -559q181 -246 530 -246q295 0 527 191q168 143 350 442q-117 -18 -144 -18q-239 -213 -520 -213q-220 0 -340 135 q-119 137 -75 338q12 45 65 149l27 -6q-35 -62 -56 -151q-37 -172 66 -299q105 -123 295 -123q218 0 457 178q-90 29 -125 80l36 24q39 -62 117 -71q129 108 209 268q-125 -49 -225 -49q-220 0 -328 153q-103 145 -59 349q40 177 166 321q-391 -9 -703 -278 q-302 -259 -379 -615zM1303 1221q-40 -187 55 -326q103 -145 305 -145q121 0 250 69q33 107 35 119q52 243 -78 408q-124 161 -387 196q-146 -166 -180 -321zM1511 1571q280 -41 404 -217q133 -176 74 -441l-15 -69q199 177 281 346h37q-146 -267 -336 -385 q-90 -200 -189 -305l93 12q16 2 34 4l203 322q139 219 162 245q103 133 233 185q24 226 -94 368q-124 148 -368 148q-280 0 -519 -213zM1767 1892q95 176 224 176q52 0 73 -8l152 -41q21 -6 51 -6q81 0 121 82h51q-92 -182 -227 -182q-10 0 -58 10l-147 39q-48 10 -65 10 q-83 0 -121 -80h-54zM1978 530q26 0 111 27q105 34 160 43q0 9 24.5 55.5t24.5 55.5l78 202q93 247 98 267l10 49q-127 -59 -297 -324q-65 -102 -209 -375z" />
<glyph unicode="&#xc4;" horiz-adv-x="2766" d="M309 686q73 351 383 612q322 273 703 273h73q256 256 625 256q317 0 465 -189q142 -183 78 -473q-37 -182 -166 -549q125 -27 166 -110l-31 -14q-54 79 -141 94q-90 -209 -148 -471q-88 -426 168 -426q165 0 203 170h29q-44 -203 -275 -203q-232 0 -297 215 q-49 166 0 393q29 142 99 307q-128 -48 -283 -79q-179 -329 -381 -488q-248 -199 -588 -199q-381 0 -575 271q-183 260 -107 610zM354 649q-67 -315 109 -559q181 -246 530 -246q295 0 527 191q168 143 350 442q-117 -18 -144 -18q-239 -213 -520 -213q-220 0 -340 135 q-119 137 -75 338q12 45 65 149l27 -6q-35 -62 -56 -151q-37 -172 66 -299q105 -123 295 -123q218 0 457 178q-90 29 -125 80l36 24q39 -62 117 -71q129 108 209 268q-125 -49 -225 -49q-220 0 -328 153q-103 145 -59 349q40 177 166 321q-391 -9 -703 -278 q-302 -259 -379 -615zM1303 1221q-40 -187 55 -326q103 -145 305 -145q121 0 250 69q33 107 35 119q52 243 -78 408q-124 161 -387 196q-146 -166 -180 -321zM1511 1571q280 -41 404 -217q133 -176 74 -441l-15 -69q199 177 281 346h37q-146 -267 -336 -385 q-90 -200 -189 -305l93 12q16 2 34 4l203 322q139 219 162 245q103 133 233 185q24 226 -94 368q-124 148 -368 148q-280 0 -519 -213zM1792 1944q24 110 57 110q11 0 113 -18q35 -6 20 -86q-9 -45 -94 -45q-105 0 -96 39zM1978 530q26 0 111 27q105 34 160 43 q0 9 24.5 55.5t24.5 55.5l78 202q93 247 98 267l10 49q-127 -59 -297 -324q-65 -102 -209 -375zM2152 1944q24 110 58 110q13 0 112 -18q30 -6 15 -86q-9 -45 -88 -45q-106 0 -97 39z" />
<glyph unicode="&#xc5;" horiz-adv-x="2766" d="M309 686q73 351 383 612q322 273 703 273h73q256 256 625 256q317 0 465 -189q142 -183 78 -473q-37 -182 -166 -549q125 -27 166 -110l-31 -14q-54 79 -141 94q-90 -209 -148 -471q-88 -426 168 -426q165 0 203 170h29q-44 -203 -275 -203q-232 0 -297 215 q-49 166 0 393q29 142 99 307q-128 -48 -283 -79q-179 -329 -381 -488q-248 -199 -588 -199q-381 0 -575 271q-183 260 -107 610zM354 649q-67 -315 109 -559q181 -246 530 -246q295 0 527 191q168 143 350 442q-117 -18 -144 -18q-239 -213 -520 -213q-220 0 -340 135 q-119 137 -75 338q12 45 65 149l27 -6q-35 -62 -56 -151q-37 -172 66 -299q105 -123 295 -123q218 0 457 178q-90 29 -125 80l36 24q39 -62 117 -71q129 108 209 268q-125 -49 -225 -49q-220 0 -328 153q-103 145 -59 349q40 177 166 321q-391 -9 -703 -278 q-302 -259 -379 -615zM1303 1221q-40 -187 55 -326q103 -145 305 -145q121 0 250 69q33 107 35 119q52 243 -78 408q-124 161 -387 196q-146 -166 -180 -321zM1511 1571q280 -41 404 -217q133 -176 74 -441l-15 -69q199 177 281 346h37q-146 -267 -336 -385 q-90 -200 -189 -305l93 12q16 2 34 4l203 322q139 219 162 245q103 133 233 185q24 226 -94 368q-124 148 -368 148q-280 0 -519 -213zM1978 530q26 0 111 27q105 34 160 43q0 9 24.5 55.5t24.5 55.5l78 202q93 247 98 267l10 49q-127 -59 -297 -324q-65 -102 -209 -375z " />
<glyph unicode="&#xc7;" horiz-adv-x="2209" d="M424 1026q74 344 389 580q315 239 696 239q372 0 551 -231q174 121 299 121q115 0 142 -117q17 -83 -7 -205q-62 -292 -327 -582q36 -73 41 -108q9 -50 -10 -141q-47 -217 -232 -445q-183 -229 -405 -342q74 -179 237 -299l-35 -35q-95 75 -151 142q-50 68 -90 178 q-46 -12 -88 -12q-18 0 -50 4l-53 -92h29q10 2 18 2h13q93 0 131.5 -37t21.5 -109q-27 -141 -233 -141q-174 0 -275 82l25 33q127 -62 219 -62q131 0 152 92q9 41 -19 62.5t-94 21.5q-45 0 -86 -8l100 170q-131 52 -184 207q-43 134 -16 291q-41 -6 -86 -6q-342 0 -519 219 q-172 211 -104 528zM471 991q-58 -275 107 -477q165 -201 464 -201h97q188 717 882 1270q-135 221 -489 221q-360 0 -676 -243q-314 -241 -385 -570zM1294 152q-74 -351 146 -351q36 0 88 19q-7 23 -12.5 46t-9 48t-5.5 38.5t-4.5 41t-3.5 33.5q0 78 29 217q3 17 23.5 79.5 t23.5 79.5l-236 -90q-13 -43 -39 -161zM1366 371q136 28 223 75q200 455 451 455q56 0 78 -31q284 381 336 629q15 73 -3 135q-21 80 -92 80q-107 0 -264 -160q34 -37 76 -176l-43 -18q-24 72 -27 90q-13 35 -43 80q-419 -437 -672 -1106zM1556 -176q205 113 375 379 q146 238 195 465q16 79 4 133q-229 -223 -508 -377q-38 -138 -53 -209q-47 -219 -13 -391zM1638 479q290 155 455 365q-23 20 -61 20q-206 0 -394 -385z" />
<glyph unicode="&#xc8;" horiz-adv-x="2930" d="M301 700q80 379 395 639q328 275 734 275q233 190 604 190q141 0 407 -78l168 -51q343 -104 520 -104q119 0 183 24q90 35 110 131q3 13 -4 46l39 6q3 -35 -4 -66q-27 -137 -172 -229q-137 -84 -287 -84q-96 0 -264 43l-51 6q-139 -104 -256 -315q-59 -105 -160 -359 q108 27 182 27q60 0 127 -31q80 -38 68 -90q-9 -39 -45 -39q-22 0 -25 45q-12 76 -133 76q-64 0 -194 -31q-108 -250 -175 -364q-121 -204 -274 -324q192 -125 537 -125q140 0 274 70q156 80 180 196q9 56 -35 56l-55 -21q-30 -12 -61 -12q-43 0 -67 35t-13 77 q10 47 52.5 78t94.5 31q85 0 115 -76q22 -61 4 -145q-41 -191 -207 -320q-171 -133 -372 -133q-155 0 -295 70q-121 64 -240 151q-344 -200 -676 -200q-397 0 -608 284q-198 271 -121 641zM352 680q-71 -338 113 -592q191 -268 555 -268q294 0 561 243q-131 94 -205 130 q-113 55 -246 55h-53q-19 -8 -59 -8q-39 0 -31 32q6 35 53 35q29 0 56 -6q12 0 42.5 -5t37.5 -5q215 0 413 131q190 122 303 309q-42 12 -86 74q-138 -105 -301 -105q-209 0 -309 158q-88 143 -47 344q47 209 231 381l-49 -12q-355 -47 -637 -314q-271 -253 -342 -577z M1196 1202q-40 -181 39 -317q86 -148 278 -148q163 0 281 103l12 61q15 68 64 68q31 0 22 -54q-9 -45 -49 -75q11 -43 68 -78q61 118 78 201q53 251 -82 432q-147 188 -416 188h-59q-192 -180 -236 -381zM1298 260l45 -6l19 -6q7 -4 113 -64l92 -51q27 0 61 -24 q117 117 379 544q3 19 25 47h-33q-22 0 -64 11q-102 -184 -258 -295q-156 -106 -379 -156zM1485 1614q304 -9 454 -199q151 -188 89 -471q-11 -58 -68 -199q8 0 33 -4t32 -4h25l33 68l82 139q122 197 200 291q97 114 275 238q-161 49 -213 71l-158 70q-281 121 -411 121 q-202 0 -373 -121zM2658 2095q9 49 70 49q34 0 55 -55l84 -223h-61l-127 172q-24 35 -21 57z" />
<glyph unicode="&#xc9;" horiz-adv-x="2930" d="M301 700q80 379 395 639q328 275 734 275q233 190 604 190q141 0 407 -78l168 -51q343 -104 520 -104q119 0 183 24q90 35 110 131q3 13 -4 46l39 6q3 -35 -4 -66q-27 -137 -172 -229q-137 -84 -287 -84q-96 0 -264 43l-51 6q-139 -104 -256 -315q-59 -105 -160 -359 q108 27 182 27q60 0 127 -31q80 -38 68 -90q-9 -39 -45 -39q-22 0 -25 45q-12 76 -133 76q-64 0 -194 -31q-108 -250 -175 -364q-121 -204 -274 -324q192 -125 537 -125q140 0 274 70q156 80 180 196q9 56 -35 56l-55 -21q-30 -12 -61 -12q-43 0 -67 35t-13 77 q10 47 52.5 78t94.5 31q85 0 115 -76q22 -61 4 -145q-41 -191 -207 -320q-171 -133 -372 -133q-155 0 -295 70q-121 64 -240 151q-344 -200 -676 -200q-397 0 -608 284q-198 271 -121 641zM352 680q-71 -338 113 -592q191 -268 555 -268q294 0 561 243q-131 94 -205 130 q-113 55 -246 55h-53q-19 -8 -59 -8q-39 0 -31 32q6 35 53 35q29 0 56 -6q12 0 42.5 -5t37.5 -5q215 0 413 131q190 122 303 309q-42 12 -86 74q-138 -105 -301 -105q-209 0 -309 158q-88 143 -47 344q47 209 231 381l-49 -12q-355 -47 -637 -314q-271 -253 -342 -577z M1196 1202q-40 -181 39 -317q86 -148 278 -148q163 0 281 103l12 61q15 68 64 68q31 0 22 -54q-9 -45 -49 -75q11 -43 68 -78q61 118 78 201q53 251 -82 432q-147 188 -416 188h-59q-192 -180 -236 -381zM1298 260l45 -6l19 -6q7 -4 113 -64l92 -51q27 0 61 -24 q117 117 379 544q3 19 25 47h-33q-22 0 -64 11q-102 -184 -258 -295q-156 -106 -379 -156zM1485 1614q304 -9 454 -199q151 -188 89 -471q-11 -58 -68 -199q8 0 33 -4t32 -4h25l33 68l82 139q122 197 200 291q97 114 275 238q-161 49 -213 71l-158 70q-281 121 -411 121 q-202 0 -373 -121zM2431 1825l356 246q43 32 78 32q53 0 41 -51q-6 -32 -72 -63l-344 -164h-59z" />
<glyph unicode="&#xca;" horiz-adv-x="2930" d="M301 700q80 379 395 639q328 275 734 275q233 190 604 190q141 0 407 -78l168 -51q343 -104 520 -104q119 0 183 24q90 35 110 131q3 13 -4 46l39 6q3 -35 -4 -66q-27 -137 -172 -229q-137 -84 -287 -84q-96 0 -264 43l-51 6q-139 -104 -256 -315q-59 -105 -160 -359 q108 27 182 27q60 0 127 -31q80 -38 68 -90q-9 -39 -45 -39q-22 0 -25 45q-12 76 -133 76q-64 0 -194 -31q-108 -250 -175 -364q-121 -204 -274 -324q192 -125 537 -125q140 0 274 70q156 80 180 196q9 56 -35 56l-55 -21q-30 -12 -61 -12q-43 0 -67 35t-13 77 q10 47 52.5 78t94.5 31q85 0 115 -76q22 -61 4 -145q-41 -191 -207 -320q-171 -133 -372 -133q-155 0 -295 70q-121 64 -240 151q-344 -200 -676 -200q-397 0 -608 284q-198 271 -121 641zM352 680q-71 -338 113 -592q191 -268 555 -268q294 0 561 243q-131 94 -205 130 q-113 55 -246 55h-53q-19 -8 -59 -8q-39 0 -31 32q6 35 53 35q29 0 56 -6q12 0 42.5 -5t37.5 -5q215 0 413 131q190 122 303 309q-42 12 -86 74q-138 -105 -301 -105q-209 0 -309 158q-88 143 -47 344q47 209 231 381l-49 -12q-355 -47 -637 -314q-271 -253 -342 -577z M1196 1202q-40 -181 39 -317q86 -148 278 -148q163 0 281 103l12 61q15 68 64 68q31 0 22 -54q-9 -45 -49 -75q11 -43 68 -78q61 118 78 201q53 251 -82 432q-147 188 -416 188h-59q-192 -180 -236 -381zM1298 260l45 -6l19 -6q7 -4 113 -64l92 -51q27 0 61 -24 q117 117 379 544q3 19 25 47h-33q-22 0 -64 11q-102 -184 -258 -295q-156 -106 -379 -156zM1485 1614q304 -9 454 -199q151 -188 89 -471q-11 -58 -68 -199q8 0 33 -4t32 -4h25l33 68l82 139q122 197 200 291q97 114 275 238q-161 49 -213 71l-158 70q-281 121 -411 121 q-202 0 -373 -121zM2327 1866l403 270h111l118 -270h-57l-141 182l-365 -182h-69z" />
<glyph unicode="&#xcb;" horiz-adv-x="2930" d="M301 700q80 379 395 639q328 275 734 275q233 190 604 190q141 0 407 -78l168 -51q343 -104 520 -104q119 0 183 24q90 35 110 131q3 13 -4 46l39 6q3 -35 -4 -66q-27 -137 -172 -229q-137 -84 -287 -84q-96 0 -264 43l-51 6q-139 -104 -256 -315q-59 -105 -160 -359 q108 27 182 27q60 0 127 -31q80 -38 68 -90q-9 -39 -45 -39q-22 0 -25 45q-12 76 -133 76q-64 0 -194 -31q-108 -250 -175 -364q-121 -204 -274 -324q192 -125 537 -125q140 0 274 70q156 80 180 196q9 56 -35 56l-55 -21q-30 -12 -61 -12q-43 0 -67 35t-13 77 q10 47 52.5 78t94.5 31q85 0 115 -76q22 -61 4 -145q-41 -191 -207 -320q-171 -133 -372 -133q-155 0 -295 70q-121 64 -240 151q-344 -200 -676 -200q-397 0 -608 284q-198 271 -121 641zM352 680q-71 -338 113 -592q191 -268 555 -268q294 0 561 243q-131 94 -205 130 q-113 55 -246 55h-53q-19 -8 -59 -8q-39 0 -31 32q6 35 53 35q29 0 56 -6q12 0 42.5 -5t37.5 -5q215 0 413 131q190 122 303 309q-42 12 -86 74q-138 -105 -301 -105q-209 0 -309 158q-88 143 -47 344q47 209 231 381l-49 -12q-355 -47 -637 -314q-271 -253 -342 -577z M1196 1202q-40 -181 39 -317q86 -148 278 -148q163 0 281 103l12 61q15 68 64 68q31 0 22 -54q-9 -45 -49 -75q11 -43 68 -78q61 118 78 201q53 251 -82 432q-147 188 -416 188h-59q-192 -180 -236 -381zM1298 260l45 -6l19 -6q7 -4 113 -64l92 -51q27 0 61 -24 q117 117 379 544q3 19 25 47h-33q-22 0 -64 11q-102 -184 -258 -295q-156 -106 -379 -156zM1485 1614q304 -9 454 -199q151 -188 89 -471q-11 -58 -68 -199q8 0 33 -4t32 -4h25l33 68l82 139q122 197 200 291q97 114 275 238q-161 49 -213 71l-158 70q-281 121 -411 121 q-202 0 -373 -121zM2460 1903q21 110 55 110q10 0 115 -18q35 -6 20 -86q-9 -45 -94 -45q-105 0 -96 39zM2820 1903q21 110 55 110q13 0 115 -18q29 -6 14 -86q-9 -45 -88 -45q-105 0 -96 39z" />
<glyph unicode="&#xcc;" horiz-adv-x="2269" d="M272 686q76 358 408 625q330 266 727 266q311 0 487 -191q411 387 1160 437l-9 -33q-274 -77 -514 -449q-147 -230 -301 -598q164 53 312 238l22 -16q-151 -194 -348 -260q-112 -247 -156 -318q-103 -175 -225 -291q-165 -153 -377 -236t-434 -83q-415 0 -627 268 q-205 263 -125 641zM313 662q-70 -327 117 -582q199 -260 557 -260q349 0 623 268q181 184 370 565l17 33q-59 14 -78 25q-276 -463 -731 -463q-211 0 -344 133q-126 132 -86 330q15 69 73 159l25 -8q-35 -68 -53 -151q-38 -177 69 -301q112 -121 306 -121q196 0 403 139 q185 126 295 309q-198 149 -152 379q20 102 138 244q-169 184 -445 184q-373 0 -702 -270q-328 -267 -402 -612zM1827 981q-31 -147 67 -211q57 127 64 168q28 145 -14 279q-97 -138 -117 -236zM1933 743q32 -14 90 -14l31 51q278 449 428 625q196 228 430 367 q-314 -44 -522 -162q-234 -126 -414 -361q59 -164 19 -346q-11 -53 -62 -160zM2105 2034q9 49 70 49q37 0 55 -55l84 -224h-61l-127 172q-28 35 -21 58z" />
<glyph unicode="&#xcd;" horiz-adv-x="2269" d="M272 686q76 358 408 625q330 266 727 266q311 0 487 -191q411 387 1160 437l-9 -33q-274 -77 -514 -449q-147 -230 -301 -598q164 53 312 238l22 -16q-151 -194 -348 -260q-112 -247 -156 -318q-103 -175 -225 -291q-165 -153 -377 -236t-434 -83q-415 0 -627 268 q-205 263 -125 641zM313 662q-70 -327 117 -582q199 -260 557 -260q349 0 623 268q181 184 370 565l17 33q-59 14 -78 25q-276 -463 -731 -463q-211 0 -344 133q-126 132 -86 330q15 69 73 159l25 -8q-35 -68 -53 -151q-38 -177 69 -301q112 -121 306 -121q196 0 403 139 q185 126 295 309q-198 149 -152 379q20 102 138 244q-169 184 -445 184q-373 0 -702 -270q-328 -267 -402 -612zM1827 981q-31 -147 67 -211q57 127 64 168q28 145 -14 279q-97 -138 -117 -236zM1933 743q32 -14 90 -14l31 51q278 449 428 625q196 228 430 367 q-314 -44 -522 -162q-234 -126 -414 -361q59 -164 19 -346q-11 -53 -62 -160zM2071 1825l356 246q43 32 78 32q53 0 41 -51q-6 -32 -72 -63l-344 -164h-59z" />
<glyph unicode="&#xce;" horiz-adv-x="2269" d="M272 686q76 358 408 625q330 266 727 266q311 0 487 -191q411 387 1160 437l-9 -33q-274 -77 -514 -449q-147 -230 -301 -598q164 53 312 238l22 -16q-151 -194 -348 -260q-112 -247 -156 -318q-103 -175 -225 -291q-165 -153 -377 -236t-434 -83q-415 0 -627 268 q-205 263 -125 641zM313 662q-70 -327 117 -582q199 -260 557 -260q349 0 623 268q181 184 370 565l17 33q-59 14 -78 25q-276 -463 -731 -463q-211 0 -344 133q-126 132 -86 330q15 69 73 159l25 -8q-35 -68 -53 -151q-38 -177 69 -301q112 -121 306 -121q196 0 403 139 q185 126 295 309q-198 149 -152 379q20 102 138 244q-169 184 -445 184q-373 0 -702 -270q-328 -267 -402 -612zM1827 981q-31 -147 67 -211q57 127 64 168q28 145 -14 279q-97 -138 -117 -236zM1933 743q32 -14 90 -14l31 51q278 449 428 625q196 228 430 367 q-314 -44 -522 -162q-234 -126 -414 -361q59 -164 19 -346q-11 -53 -62 -160zM1939 1845l404 271h111l118 -271h-57l-141 183l-365 -183h-70z" />
<glyph unicode="&#xcf;" horiz-adv-x="2269" d="M272 686q76 358 408 625q330 266 727 266q311 0 487 -191q411 387 1160 437l-9 -33q-274 -77 -514 -449q-147 -230 -301 -598q164 53 312 238l22 -16q-151 -194 -348 -260q-112 -247 -156 -318q-103 -175 -225 -291q-165 -153 -377 -236t-434 -83q-415 0 -627 268 q-205 263 -125 641zM313 662q-70 -327 117 -582q199 -260 557 -260q349 0 623 268q181 184 370 565l17 33q-59 14 -78 25q-276 -463 -731 -463q-211 0 -344 133q-126 132 -86 330q15 69 73 159l25 -8q-35 -68 -53 -151q-38 -177 69 -301q112 -121 306 -121q196 0 403 139 q185 126 295 309q-198 149 -152 379q20 102 138 244q-169 184 -445 184q-373 0 -702 -270q-328 -267 -402 -612zM1827 981q-31 -147 67 -211q57 127 64 168q28 145 -14 279q-97 -138 -117 -236zM1933 743q32 -14 90 -14l31 51q278 449 428 625q196 228 430 367 q-314 -44 -522 -162q-234 -126 -414 -361q59 -164 19 -346q-11 -53 -62 -160zM2009 1903q21 110 55 110q10 0 115 -18q36 -6 21 -86q-9 -45 -95 -45q-105 0 -96 39zM2370 1903q21 110 55 110q13 0 115 -18q29 -6 14 -86q-9 -45 -88 -45q-105 0 -96 39z" />
<glyph unicode="&#xd0;" horiz-adv-x="2799" d="M289 707q70 340 346 579q267 231 655 301q321 236 713 236q433 0 690 -269q158 76 266 76q46 0 88 -10l-8 -33q-24 8 -73 8q-128 0 -252 -75q197 -255 108 -670q-54 -242 -170 -440l-16 -25q56 -70 59 -127l-45 -10q0 53 -41 94q-372 -565 -719 -565q-92 0 -133 53 t-22 141q1 8 11 37t11 37q-342 -268 -731 -268q-406 0 -614 282q-202 273 -123 648zM328 674q-71 -338 116 -592q194 -262 566 -262q326 0 596 293q174 192 374 561l11 18h-88q-80 -145 -205 -252q-212 -182 -494 -182q-209 0 -336 121q-132 126 -108 313h-207l12 53h209 q9 27 64 138l41 -6q-40 -66 -58 -132h424q-75 35 -127 99q-132 144 -86 354q36 155 201 338q-338 -82 -590 -322q-251 -239 -315 -540zM813 692q-21 -163 86 -276q109 -115 283 -115q229 0 450 170q138 107 211 221h-1030zM1069 1190q-40 -192 80 -324q82 -94 203 -121h247 q169 41 349 199q46 262 -93 436q-140 174 -436 174h-114q-203 -203 -236 -364zM1370 1595h8q326 0 490 -152.5t145 -441.5q128 187 154 322q11 60 8 137l-4 33l33 8q17 -102 2 -184q-38 -178 -207 -383q-27 -106 -68 -189h90q155 280 263 424q158 211 374 357 q-109 131 -280 202.5t-373 71.5q-343 0 -635 -205zM1706 745h170q38 67 57 132q-150 -100 -227 -132zM1782 -29q-14 -69 20.5 -114t106.5 -45q193 0 387 215q97 107 264 368q-128 41 -188 41q-162 0 -297 -102q-115 -79 -187 -162q-88 -108 -106 -201zM2025 342 q198 137 361 137q84 0 182 -43q130 245 180 473q37 174 21 308q-15 124 -103 276q-111 -88 -212 -254q-87 -150 -228 -475l-10 -19h289l-13 -53h-299q-110 -249 -168 -350z" />
<glyph unicode="&#xd1;" horiz-adv-x="3063" d="M289 707q76 361 405 622q334 258 731 258q29 0 56 -6q250 209 569 209q430 0 602 -360q181 106 381 133v-31q-129 -23 -192 -45q-77 -26 -181 -92q65 -135 0 -496l-39 -211l-57 -266q107 162 189 317q483 891 839 891q43 0 74 -24t24 -58q-7 -37 -38.5 -61.5t-69.5 -24.5 q-50 0 -80 35t-45 35q-136 0 -373 -332q-153 -210 -272 -436q-13 -27 -57 -106.5t-72 -133.5q-68 -124 -137 -196l-13 -49q-43 -208 -18 -347q40 -208 225 -208q82 0 185 77l36 -18q-109 -100 -264 -100q-271 0 -354 243q-61 178 0 463q21 106 98 367q60 198 90 342 q38 157 29 219q-136 -121 -258 -328q-55 -96 -180 -358q-82 -175 -117 -228q-65 -127 -123 -194q-107 -120 -164 -166q-279 -225 -667 -225q-414 0 -629 256q-212 256 -133 633zM334 664q-74 -349 129 -580q202 -234 586 -234q276 0 510 146q137 86 217 199q117 152 327 536 q150 263 195 334q124 184 264 297l-8 16q-27 180 -162 281q-136 92 -350 92q-252 0 -514 -170q265 -38 399 -215q135 -175 82 -426l-14 -66q147 129 217 285l37 -6q-37 -72 -117 -186q-43 -57 -160 -160q-111 -247 -295 -387q-210 -160 -469 -160q-228 0 -352 127 q-121 127 -74 336q21 97 62 160l33 -9q-45 -67 -60 -143q-37 -178 66 -305q102 -123 299 -123q208 0 415 139q195 130 299 322q-157 -66 -280 -66q-217 0 -330 146q-108 138 -65 340q29 140 190 336l25 28q-388 0 -711 -270q-314 -259 -391 -614zM1257 1184 q-37 -179 60 -314q103 -139 295 -139q156 0 311 94q30 58 41 115q53 254 -78 416q-126 157 -393 200q-196 -184 -236 -372zM2814 1831q95 176 223 176q53 0 74 -8l151 -41q21 -6 52 -6q80 0 120 82h52q-92 -183 -228 -183q-6 0 -59 11l-145 39q-48 10 -66 10q-83 0 -121 -80 h-53z" />
<glyph unicode="&#xd2;" horiz-adv-x="2340" d="M440 1040q73 343 394 578q321 233 702 233q344 0 543 -227q175 105 272 105q92 0 132.5 -60.5t21.5 -155.5l-15 -65q50 -65 50 -127q2 -27 -23 -150q-94 -442 -598 -1040q-96 -118 -160 -176q-77 -66 -198 -143q53 -186 215 -293l-21 -23q-114 72 -156 127 q-54 69 -83 172q-62 -24 -103 -24q-205 0 -272 180q-48 132 -21 344h-65q-339 0 -510 223q-169 214 -105 522zM485 1008q-59 -284 109 -482t475 -198h59q87 340 338 694q258 364 584 580q-179 206 -498 206q-357 0 -678 -239q-318 -236 -389 -561zM1278 121 q-67 -316 127 -316q49 0 104 25q-40 200 19 485q10 41 28 97q-121 -50 -206 -72q-48 -120 -72 -219zM1358 383q85 18 207 70q194 580 594 938q3 14 -31 84l-35 75q-191 -185 -405 -538q-164 -272 -304 -582zM1548 -154q122 66 215 166q60 63 168 207q176 240 326 518 q184 332 229 537q10 56 -4 133q-276 -643 -880 -971l-31 -141q-57 -263 -23 -449zM1610 479q595 322 833 951q-29 26 -78 26q-77 0 -163 -65q19 -81 22 -244l-43 -6q0 96 -14 219q-191 -162 -342 -414q-133 -222 -215 -467zM2122 1583q46 -85 71 -158q101 64 179 64 q50 0 82 -14l6 32q14 61 -9 125q-24 70 -94 70q-113 0 -235 -119zM2290 2054q9 49 69 49q38 0 56 -55l84 -223h-62l-127 172q-27 34 -20 57z" />
<glyph unicode="&#xd3;" horiz-adv-x="2340" d="M440 1040q73 343 394 578q321 233 702 233q344 0 543 -227q175 105 272 105q92 0 132.5 -60.5t21.5 -155.5l-15 -65q50 -65 50 -127q2 -27 -23 -150q-94 -442 -598 -1040q-96 -118 -160 -176q-77 -66 -198 -143q53 -186 215 -293l-21 -23q-114 72 -156 127 q-54 69 -83 172q-62 -24 -103 -24q-205 0 -272 180q-48 132 -21 344h-65q-339 0 -510 223q-169 214 -105 522zM485 1008q-59 -284 109 -482t475 -198h59q87 340 338 694q258 364 584 580q-179 206 -498 206q-357 0 -678 -239q-318 -236 -389 -561zM1278 121 q-67 -316 127 -316q49 0 104 25q-40 200 19 485q10 41 28 97q-121 -50 -206 -72q-48 -120 -72 -219zM1358 383q85 18 207 70q194 580 594 938q3 14 -31 84l-35 75q-191 -185 -405 -538q-164 -272 -304 -582zM1548 -154q122 66 215 166q60 63 168 207q176 240 326 518 q184 332 229 537q10 56 -4 133q-276 -643 -880 -971l-31 -141q-57 -263 -23 -449zM1610 479q595 322 833 951q-29 26 -78 26q-77 0 -163 -65q19 -81 22 -244l-43 -6q0 96 -14 219q-191 -162 -342 -414q-133 -222 -215 -467zM2122 1583q46 -85 71 -158q101 64 179 64 q50 0 82 -14l6 32q14 61 -9 125q-24 70 -94 70q-113 0 -235 -119zM2157 1804l356 246q44 33 78 33q53 0 41 -51q-6 -33 -72 -64l-344 -164h-59z" />
<glyph unicode="&#xd4;" horiz-adv-x="2340" d="M440 1040q73 343 394 578q321 233 702 233q344 0 543 -227q175 105 272 105q92 0 132.5 -60.5t21.5 -155.5l-15 -65q50 -65 50 -127q2 -27 -23 -150q-94 -442 -598 -1040q-96 -118 -160 -176q-77 -66 -198 -143q53 -186 215 -293l-21 -23q-114 72 -156 127 q-54 69 -83 172q-62 -24 -103 -24q-205 0 -272 180q-48 132 -21 344h-65q-339 0 -510 223q-169 214 -105 522zM485 1008q-59 -284 109 -482t475 -198h59q87 340 338 694q258 364 584 580q-179 206 -498 206q-357 0 -678 -239q-318 -236 -389 -561zM1278 121 q-67 -316 127 -316q49 0 104 25q-40 200 19 485q10 41 28 97q-121 -50 -206 -72q-48 -120 -72 -219zM1358 383q85 18 207 70q194 580 594 938q3 14 -31 84l-35 75q-191 -185 -405 -538q-164 -272 -304 -582zM1548 -154q122 66 215 166q60 63 168 207q176 240 326 518 q184 332 229 537q10 56 -4 133q-276 -643 -880 -971l-31 -141q-57 -263 -23 -449zM1610 479q595 322 833 951q-29 26 -78 26q-77 0 -163 -65q19 -81 22 -244l-43 -6q0 96 -14 219q-191 -162 -342 -414q-133 -222 -215 -467zM2066 1804l404 271h110l119 -271h-57l-141 183 l-365 -183h-70zM2122 1583q46 -85 71 -158q101 64 179 64q50 0 82 -14l6 32q14 61 -9 125q-24 70 -94 70q-113 0 -235 -119z" />
<glyph unicode="&#xd5;" horiz-adv-x="2340" d="M440 1040q73 343 394 578q321 233 702 233q344 0 543 -227q175 105 272 105q92 0 132.5 -60.5t21.5 -155.5l-15 -65q50 -65 50 -127q2 -27 -23 -150q-94 -442 -598 -1040q-96 -118 -160 -176q-77 -66 -198 -143q53 -186 215 -293l-21 -23q-114 72 -156 127 q-54 69 -83 172q-62 -24 -103 -24q-205 0 -272 180q-48 132 -21 344h-65q-339 0 -510 223q-169 214 -105 522zM485 1008q-59 -284 109 -482t475 -198h59q87 340 338 694q258 364 584 580q-179 206 -498 206q-357 0 -678 -239q-318 -236 -389 -561zM1278 121 q-67 -316 127 -316q49 0 104 25q-40 200 19 485q10 41 28 97q-121 -50 -206 -72q-48 -120 -72 -219zM1358 383q85 18 207 70q194 580 594 938q3 14 -31 84l-35 75q-191 -185 -405 -538q-164 -272 -304 -582zM1548 -154q122 66 215 166q60 63 168 207q176 240 326 518 q184 332 229 537q10 56 -4 133q-276 -643 -880 -971l-31 -141q-57 -263 -23 -449zM1610 479q595 322 833 951q-29 26 -78 26q-77 0 -163 -65q19 -81 22 -244l-43 -6q0 96 -14 219q-191 -162 -342 -414q-133 -222 -215 -467zM2093 1831q95 176 223 176q53 0 74 -8l152 -41 q21 -6 51 -6q81 0 121 82h49q-89 -183 -226 -183q-7 0 -57 11l-147 39q-48 10 -66 10q-83 0 -121 -80h-53zM2122 1583q46 -85 71 -158q101 64 179 64q50 0 82 -14l6 32q14 61 -9 125q-24 70 -94 70q-113 0 -235 -119z" />
<glyph unicode="&#xd6;" horiz-adv-x="2340" d="M440 1040q73 343 394 578q321 233 702 233q344 0 543 -227q175 105 272 105q92 0 132.5 -60.5t21.5 -155.5l-15 -65q50 -65 50 -127q2 -27 -23 -150q-94 -442 -598 -1040q-96 -118 -160 -176q-77 -66 -198 -143q53 -186 215 -293l-21 -23q-114 72 -156 127 q-54 69 -83 172q-62 -24 -103 -24q-205 0 -272 180q-48 132 -21 344h-65q-339 0 -510 223q-169 214 -105 522zM485 1008q-59 -284 109 -482t475 -198h59q87 340 338 694q258 364 584 580q-179 206 -498 206q-357 0 -678 -239q-318 -236 -389 -561zM1278 121 q-67 -316 127 -316q49 0 104 25q-40 200 19 485q10 41 28 97q-121 -50 -206 -72q-48 -120 -72 -219zM1358 383q85 18 207 70q194 580 594 938q3 14 -31 84l-35 75q-191 -185 -405 -538q-164 -272 -304 -582zM1548 -154q122 66 215 166q60 63 168 207q176 240 326 518 q184 332 229 537q10 56 -4 133q-276 -643 -880 -971l-31 -141q-57 -263 -23 -449zM1610 479q595 322 833 951q-29 26 -78 26q-77 0 -163 -65q19 -81 22 -244l-43 -6q0 96 -14 219q-191 -162 -342 -414q-133 -222 -215 -467zM2122 1583q46 -85 71 -158q101 64 179 64 q50 0 82 -14l6 32q14 61 -9 125q-24 70 -94 70q-113 0 -235 -119zM2132 1841q21 111 55 111q5 0 113 -19q38 -6 20 -86q-9 -45 -92 -45q-105 0 -96 39zM2492 1841q21 111 56 111q8 0 112 -19q33 -6 15 -86q-9 -45 -86 -45q-106 0 -97 39z" />
<glyph unicode="&#xd7;" horiz-adv-x="1875" d="M365 131l628 479l-424 482l90 69l426 -481l631 481l64 -69l-633 -482l428 -479l-92 -70l-426 482l-631 -482z" />
<glyph unicode="&#xd9;" horiz-adv-x="2867" d="M410 963q80 376 456 651q381 276 795 276q353 0 559 -188q219 -201 154 -512q-23 -113 -72 -207q-65 -113 -244 -371l-213 -303l-147 -221q-76 -82 -92 -156q-18 -92 71 -92q168 0 658 772l202 322q158 248 361 414q254 211 502 211q78 0 125 -33q58 -40 43 -103 q-18 -92 -111 -92q-33 0 -47.5 13.5t-9.5 39.5l12 54q15 80 -76 80q-215 0 -508 -437q-83 -127 -334 -592l-155 -288q-93 -184 -115 -295q-16 -81 -2 -129q21 -72 94 -72q149 0 279 201l35 -19q-163 -227 -324 -227q-152 0 -205 152q-44 122 -10 270q3 15 23 76 q9 22 17.5 46t10.5 29q-136 -193 -203 -260q-158 -174 -276 -174q-101 0 -139 97q-31 86 -11 178q29 141 252 436l203 264q247 323 287 516q56 259 -129 418q-169 150 -463 150q-397 0 -760 -269q-350 -268 -430 -637q-58 -275 92 -475q150 -211 453 -211q188 0 371 86 t317 236l37 -17q-143 -160 -335 -249t-396 -89q-327 0 -498 220q-169 211 -104 510zM2658 1993q9 49 70 49q36 0 57 -55l84 -224h-61l-129 172q-24 35 -21 58z" />
<glyph unicode="&#xda;" horiz-adv-x="2867" d="M410 963q80 376 456 651q381 276 795 276q353 0 559 -188q219 -201 154 -512q-23 -113 -72 -207q-65 -113 -244 -371l-213 -303l-147 -221q-76 -82 -92 -156q-18 -92 71 -92q168 0 658 772l202 322q158 248 361 414q254 211 502 211q78 0 125 -33q58 -40 43 -103 q-18 -92 -111 -92q-33 0 -47.5 13.5t-9.5 39.5l12 54q15 80 -76 80q-215 0 -508 -437q-83 -127 -334 -592l-155 -288q-93 -184 -115 -295q-16 -81 -2 -129q21 -72 94 -72q149 0 279 201l35 -19q-163 -227 -324 -227q-152 0 -205 152q-44 122 -10 270q3 15 23 76 q9 22 17.5 46t10.5 29q-136 -193 -203 -260q-158 -174 -276 -174q-101 0 -139 97q-31 86 -11 178q29 141 252 436l203 264q247 323 287 516q56 259 -129 418q-169 150 -463 150q-397 0 -760 -269q-350 -268 -430 -637q-58 -275 92 -475q150 -211 453 -211q188 0 371 86 t317 236l37 -17q-143 -160 -335 -249t-396 -89q-327 0 -498 220q-169 211 -104 510zM2607 1804l356 246q44 33 78 33q53 0 41 -51q-6 -34 -71 -64l-345 -164h-59z" />
<glyph unicode="&#xdb;" horiz-adv-x="2867" d="M410 963q80 376 456 651q381 276 795 276q353 0 559 -188q219 -201 154 -512q-23 -113 -72 -207q-65 -113 -244 -371l-213 -303l-147 -221q-76 -82 -92 -156q-18 -92 71 -92q168 0 658 772l202 322q158 248 361 414q254 211 502 211q78 0 125 -33q58 -40 43 -103 q-18 -92 -111 -92q-33 0 -47.5 13.5t-9.5 39.5l12 54q15 80 -76 80q-215 0 -508 -437q-83 -127 -334 -592l-155 -288q-93 -184 -115 -295q-16 -81 -2 -129q21 -72 94 -72q149 0 279 201l35 -19q-163 -227 -324 -227q-152 0 -205 152q-44 122 -10 270q3 15 23 76 q9 22 17.5 46t10.5 29q-136 -193 -203 -260q-158 -174 -276 -174q-101 0 -139 97q-31 86 -11 178q29 141 252 436l203 264q247 323 287 516q56 259 -129 418q-169 150 -463 150q-397 0 -760 -269q-350 -268 -430 -637q-58 -275 92 -475q150 -211 453 -211q188 0 371 86 t317 236l37 -17q-143 -160 -335 -249t-396 -89q-327 0 -498 220q-169 211 -104 510zM2566 1825l404 270h110l119 -270h-57l-142 182l-364 -182h-70z" />
<glyph unicode="&#xdc;" horiz-adv-x="2867" d="M410 963q80 376 456 651q381 276 795 276q353 0 559 -188q219 -201 154 -512q-23 -113 -72 -207q-65 -113 -244 -371l-213 -303l-147 -221q-76 -82 -92 -156q-18 -92 71 -92q168 0 658 772l202 322q158 248 361 414q254 211 502 211q78 0 125 -33q58 -40 43 -103 q-18 -92 -111 -92q-33 0 -47.5 13.5t-9.5 39.5l12 54q15 80 -76 80q-215 0 -508 -437q-83 -127 -334 -592l-155 -288q-93 -184 -115 -295q-16 -81 -2 -129q21 -72 94 -72q149 0 279 201l35 -19q-163 -227 -324 -227q-152 0 -205 152q-44 122 -10 270q3 15 23 76 q9 22 17.5 46t10.5 29q-136 -193 -203 -260q-158 -174 -276 -174q-101 0 -139 97q-31 86 -11 178q29 141 252 436l203 264q247 323 287 516q56 259 -129 418q-169 150 -463 150q-397 0 -760 -269q-350 -268 -430 -637q-58 -275 92 -475q150 -211 453 -211q188 0 371 86 t317 236l37 -17q-143 -160 -335 -249t-396 -89q-327 0 -498 220q-169 211 -104 510zM2677 1862q21 110 55 110q11 0 113 -18q38 -6 20 -86q-9 -45 -92 -45q-105 0 -96 39zM3037 1862q21 110 55 110q14 0 113 -18q32 -6 14 -86q-9 -45 -86 -45q-105 0 -96 39z" />
<glyph unicode="&#xdd;" horiz-adv-x="2260" d="M289 705q61 294 282 512q211 208 543 321q238 277 582 277q210 0 346 -103q148 -115 108 -299q-37 -171 -243 -397q-76 -76 -127 -133q1 6 -4 -2q-8 -10 -35 -56q124 38 323 183l23 -17q-155 -146 -385 -217q-63 -108 -72 -156q-12 -61 8 -100q27 -47 88 -47 q147 0 328 309l123 203q127 209 340 387q248 211 465 211q95 0 153 -37q67 -46 52 -125q-7 -35 -40 -59.5t-71 -24.5q-72 0 -57 78q3 4 5.5 13.5t7.5 24.5t11 30q7 32 -15 47.5t-73 15.5q-210 0 -401 -221q-143 -166 -238 -391l-94 -227q-391 -914 -1186 -914 q-408 0 -622 272q-205 267 -125 642zM334 662q-68 -327 112 -574q191 -262 541 -262q522 0 918 686q-101 -76 -185 -76q-135 0 -190 88q-53 84 -27 207h-55q-255 0 -391 148q-139 151 -90 381q21 97 94 221q-282 -117 -479 -338q-191 -215 -248 -481zM1008 1260 q-47 -219 79 -363q126 -141 367 -141l21 4q7 1 15 2t12.5 1.5t8.5 0.5q55 155 232 338l151 158q143 146 166 260q27 134 -98 204q-108 60 -260 60q-319 0 -533 -230q112 33 256 33q229 0 439 -131l-25 -37q-199 135 -420 135q-129 0 -297 -55q-87 -112 -114 -239zM2517 1804 l356 246q44 33 78 33q53 0 41 -51q-6 -33 -72 -64l-344 -164h-59z" />
<glyph unicode="&#xde;" horiz-adv-x="847" d="M-295 -580q4 12 553 1053q427 813 721 946h6q62 -83 59 -348q0 -68 -8 -104q-15 -70 -75 -133q-12 -12 -125 -58q-102 -40 -105 -59q-4 -22 35 -72q16 -23 25 -98q9 -73 2 -111q-20 -99 -185 -270q-165 -174 -274 -174q-82 0 -64 86q6 34 33.5 60t61.5 26q48 0 36 -49 q-3 -18 -35 -44t-32 -32q-6 -21 16 -21q62 0 166 134q81 106 109 182q20 56 32 117q25 123 11 233q-2 14 2 31q3 18 63 53q88 48 113 70q68 58 82 129q5 30 -25 163q-24 106 -43 156q-109 -90 -235 -346q-118 -250 -181 -375l-165 -317q-216 -387 -422 -768q-9 -26 -39 -64 l-94 -16h-7q-15 0 -12 20z" />
<glyph unicode="&#xdf;" horiz-adv-x="837" d="M-295 -580q4 12 553 1053q427 813 721 946h6q62 -83 59 -348q0 -68 -8 -104q-15 -70 -75 -133q-12 -12 -125 -58q-102 -40 -105 -59q-4 -22 35 -72q16 -23 25 -98q9 -73 2 -111q-15 -63 -82 -153q-71 -95 -160 -172q285 144 600 444q2 -10 2 -25q-12 -49 -166 -188 q-153 -138 -301 -209q-101 -44 -209 -84q-80 -57 -143 -57q-82 0 -64 86q6 34 33.5 60t61.5 26q48 0 36 -49q-3 -18 -35 -44t-32 -32q-6 -21 16 -21q62 0 166 134q81 106 109 182q20 56 32 117q25 123 11 233q-2 14 2 31q3 18 63 53q88 48 113 70q68 58 82 129q5 30 -25 163 q-24 106 -43 156q-109 -90 -235 -346q-118 -250 -181 -375l-165 -317q-216 -387 -422 -768q-9 -26 -39 -64l-94 -16h-7q-15 0 -12 20z" />
<glyph unicode="&#xe0;" horiz-adv-x="923" d="M29 201q44 198 303 381q176 123 360 123q105 0 189 -41l6 -11v-6q-7 -23 -80 -164l-170 -317q-25 -42 -31 -70q-9 -41 35 -41q95 0 584 498q-2 -31 0 -31q-10 -36 -109 -133q-247 -238 -323 -299q-130 -106 -228 -106q-111 0 -90 100q11 53 115 229q-276 -325 -422 -325 q-88 0 -129 65q-28 60 -10 148zM160 143q-18 -92 51 -92q103 0 311 248q144 180 244 330q-36 28 -92 28q-114 0 -271 -157q-213 -219 -243 -357zM588 1010q9 49 67 49q37 0 58 -55l82 -224h-62l-127 172q-21 35 -18 58z" />
<glyph unicode="&#xe1;" horiz-adv-x="923" d="M29 201q44 198 303 381q176 123 360 123q105 0 189 -41l6 -11v-6q-7 -23 -80 -164l-170 -317q-25 -42 -31 -70q-9 -41 35 -41q95 0 584 498q-2 -31 0 -31q-10 -36 -109 -133q-247 -238 -323 -299q-130 -106 -228 -106q-111 0 -90 100q11 53 115 229q-276 -325 -422 -325 q-88 0 -129 65q-28 60 -10 148zM160 143q-18 -92 51 -92q103 0 311 248q144 180 244 330q-36 28 -92 28q-114 0 -271 -157q-213 -219 -243 -357zM547 780l360 246q42 33 76 33q50 0 41 -51q-6 -34 -74 -64l-342 -164h-61z" />
<glyph unicode="&#xe2;" horiz-adv-x="923" d="M29 201q44 198 303 381q176 123 360 123q105 0 189 -41l6 -11v-6q-7 -23 -80 -164l-170 -317q-25 -42 -31 -70q-9 -41 35 -41q95 0 584 498q-2 -31 0 -31q-10 -36 -109 -133q-247 -238 -323 -299q-130 -106 -228 -106q-111 0 -90 100q11 53 115 229q-276 -325 -422 -325 q-88 0 -129 65q-28 60 -10 148zM160 143q-18 -92 51 -92q103 0 311 248q144 180 244 330q-36 28 -92 28q-114 0 -271 -157q-213 -219 -243 -357zM344 780l406 271h110l117 -271h-55l-142 183l-366 -183h-70z" />
<glyph unicode="&#xe3;" horiz-adv-x="923" d="M29 201q44 198 303 381q176 123 360 123q105 0 189 -41l6 -11v-6q-7 -23 -80 -164l-170 -317q-25 -42 -31 -70q-9 -41 35 -41q95 0 584 498q-2 -31 0 -31q-10 -36 -109 -133q-247 -238 -323 -299q-130 -106 -228 -106q-111 0 -90 100q11 53 115 229q-276 -325 -422 -325 q-88 0 -129 65q-28 60 -10 148zM160 143q-18 -92 51 -92q103 0 311 248q144 180 244 330q-36 28 -92 28q-114 0 -271 -157q-213 -219 -243 -357zM416 807q95 176 225 176q52 0 76 -8l149 -41q21 -6 52 -6q83 0 120 82h49q-89 -183 -227 -183q-4 0 -57 11l-148 39 q-45 10 -63 10q-82 0 -123 -80h-53z" />
<glyph unicode="&#xe4;" horiz-adv-x="923" d="M29 201q44 198 303 381q176 123 360 123q105 0 189 -41l6 -11v-6q-7 -23 -80 -164l-170 -317q-25 -42 -31 -70q-9 -41 35 -41q95 0 584 498q-2 -31 0 -31q-10 -36 -109 -133q-247 -238 -323 -299q-130 -106 -228 -106q-111 0 -90 100q11 53 115 229q-276 -325 -422 -325 q-88 0 -129 65q-28 60 -10 148zM160 143q-18 -92 51 -92q103 0 311 248q144 180 244 330q-36 28 -92 28q-114 0 -271 -157q-213 -219 -243 -357zM467 858q21 111 53 111q5 0 113 -19q35 -6 20 -86q-9 -45 -92 -45q-103 0 -94 39zM827 858q21 111 54 111q12 0 112 -19 q32 -6 17 -86q-9 -45 -88 -45q-104 0 -95 39z" />
<glyph unicode="&#xe5;" horiz-adv-x="923" d="M29 201q44 198 303 381q176 123 360 123q105 0 189 -41l6 -11v-6q-7 -23 -80 -164l-170 -317q-25 -42 -31 -70q-9 -41 35 -41q95 0 584 498q-2 -31 0 -31q-10 -36 -109 -133q-247 -238 -323 -299q-130 -106 -228 -106q-111 0 -90 100q11 53 115 229q-276 -325 -422 -325 q-88 0 -129 65q-28 60 -10 148zM160 143q-18 -92 51 -92q103 0 311 248q144 180 244 330q-36 28 -92 28q-114 0 -271 -157q-213 -219 -243 -357zM602 944q19 80 89 134.5t157 54.5q88 0 135.5 -54.5t28.5 -134.5q-15 -75 -88 -133q-71 -53 -156 -53q-86 0 -134.5 54 t-31.5 132zM678 946q-11 -50 19.5 -85.5t84.5 -35.5q55 0 99.5 35t56.5 86q10 49 -20 83t-84 34t-100 -34t-56 -83z" />
<glyph unicode="&#xe6;" horiz-adv-x="1259" d="M29 201q44 198 303 381q182 129 358 129q123 0 178 -76q119 76 232 76q78 0 123 -38t32 -102q-26 -122 -239 -237q-152 -78 -336 -127q-37 -174 135 -174t414 196q169 131 340 330q4 -13 2 -24q-13 -63 -137 -181q-377 -377 -691 -377q-125 0 -178 70t-28 191l4 20 q-234 -270 -373 -270q-88 0 -129 65q-28 60 -10 148zM160 143q-18 -92 51 -92q103 0 311 248q144 180 244 330q-41 35 -92 35q-107 0 -271 -164q-213 -219 -243 -357zM690 254q150 30 268 113q140 96 164 215q15 82 -47 82q-117 0 -241 -160q-101 -142 -144 -250z" />
<glyph unicode="&#xe7;" horiz-adv-x="802" d="M-123 -311l25 35q115 -62 217 -62q126 0 147 92q18 84 -108 84q-50 0 -86 -8l102 170h55l-59 -106h29q8 2 18 2h10q93 0 132 -37t24 -109q-30 -143 -238 -143q-167 0 -268 82zM70 231q35 161 209 310q203 170 378 170q77 0 119 -33q52 -37 37 -103q-10 -53 -60.5 -87.5 t-111.5 -34.5q-44 0 -59 30q91 36 106 105q15 76 -57 76q-86 0 -191 -99q-74 -74 -133 -168q-64 -98 -82 -184q-40 -180 140 -180q287 0 751 522q4 -17 2 -25q-11 -45 -108 -147q-394 -406 -719 -406q-123 0 -184.5 70.5t-36.5 183.5z" />
<glyph unicode="&#xe8;" horiz-adv-x="796" d="M72 231q36 164 207 316q185 164 358 164q77 0 124 -38t34 -102q-27 -124 -238 -235q-146 -79 -336 -129q-37 -174 129 -174q173 0 420 198q169 136 340 328q3 -18 0 -24q-12 -61 -135 -181q-377 -377 -694 -377q-123 0 -178.5 70t-30.5 184zM231 254q148 30 269 113 q140 96 164 215q15 80 -58 80q-114 0 -235 -160q-94 -123 -140 -248zM494 1010q9 49 69 49q37 0 58 -55l81 -224h-61l-127 172q-23 34 -20 58z" />
<glyph unicode="&#xe9;" horiz-adv-x="796" d="M72 231q36 164 207 316q185 164 358 164q77 0 124 -38t34 -102q-27 -124 -238 -235q-146 -79 -336 -129q-37 -174 129 -174q173 0 420 198q169 136 340 328q3 -18 0 -24q-12 -61 -135 -181q-377 -377 -694 -377q-123 0 -178.5 70t-30.5 184zM231 254q148 30 269 113 q140 96 164 215q15 80 -58 80q-114 0 -235 -160q-94 -123 -140 -248zM455 780l358 246q44 33 78 33q50 0 41 -51q-6 -34 -74 -64l-342 -164h-61z" />
<glyph unicode="&#xea;" horiz-adv-x="796" d="M72 231q36 164 207 316q185 164 358 164q77 0 124 -38t34 -102q-27 -124 -238 -235q-146 -79 -336 -129q-37 -174 129 -174q173 0 420 198q169 136 340 328q3 -18 0 -24q-12 -61 -135 -181q-377 -377 -694 -377q-123 0 -178.5 70t-30.5 184zM231 254q148 30 269 113 q140 96 164 215q15 80 -58 80q-114 0 -235 -160q-94 -123 -140 -248zM252 780l405 271h111l117 -271h-58l-139 183l-366 -183h-70z" />
<glyph unicode="&#xeb;" horiz-adv-x="796" d="M72 231q36 164 207 316q185 164 358 164q77 0 124 -38t34 -102q-27 -124 -238 -235q-146 -79 -336 -129q-37 -174 129 -174q173 0 420 198q169 136 340 328q3 -18 0 -24q-12 -61 -135 -181q-377 -377 -694 -377q-123 0 -178.5 70t-30.5 184zM231 254q148 30 269 113 q140 96 164 215q15 80 -58 80q-114 0 -235 -160q-94 -123 -140 -248zM375 858q21 111 53 111q5 0 113 -19q35 -6 20 -86q-9 -45 -92 -45q-103 0 -94 39zM733 858q21 111 55 111q13 0 113 -19q32 -6 17 -86q-9 -45 -89 -45q-105 0 -96 39z" />
<glyph unicode="&#xec;" horiz-adv-x="557" d="M63 113q10 37 62 131l229 403q19 32 52 35l86 16h8q13 0 10 -16l-6 -12l-246 -430q-46 -85 -57 -134q-12 -57 43 -57q130 0 624 512v-26q-9 -48 -166 -199q-359 -346 -534 -346q-132 0 -105 123zM281 1010q9 49 69 49q37 0 58 -55l79 -224h-59l-129 172q-21 35 -18 58z " />
<glyph unicode="&#xed;" horiz-adv-x="557" d="M63 113q10 37 62 131l229 403q19 32 52 35l86 16h8q13 0 10 -16l-6 -12l-246 -430q-46 -85 -57 -134q-12 -57 43 -57q130 0 624 512v-26q-9 -48 -166 -199q-359 -346 -534 -346q-132 0 -105 123zM240 780l360 246q44 33 76 33q50 0 41 -51q-6 -33 -72 -64l-344 -164h-61z " />
<glyph unicode="&#xee;" horiz-adv-x="557" d="M39 780l405 271h111l117 -271h-58l-141 183l-362 -183h-72zM63 113q10 37 62 131l229 403q19 32 52 35l86 16h8q13 0 10 -16l-6 -12l-246 -430q-46 -85 -57 -134q-12 -57 43 -57q130 0 624 512v-26q-9 -48 -166 -199q-359 -346 -534 -346q-132 0 -105 123z" />
<glyph unicode="&#xef;" horiz-adv-x="557" d="M63 113q10 37 62 131l229 403q19 32 52 35l86 16h8q13 0 10 -16l-6 -12l-246 -430q-46 -85 -57 -134q-12 -57 43 -57q130 0 624 512v-26q-9 -48 -166 -199q-359 -346 -534 -346q-132 0 -105 123zM162 858q21 111 51 111q7 0 115 -19q33 -6 18 -86q-9 -45 -90 -45 q-103 0 -94 39zM520 858q21 111 53 111q11 0 115 -19q29 -6 14 -86q-9 -45 -86 -45q-105 0 -96 39z" />
<glyph unicode="&#xf0;" horiz-adv-x="944" d="M63 233q35 172 226 322q191 156 375 156q76 0 135 -47q33 144 30 307l-278 -84l-4 2l-10 24l14 13l276 84q3 97 -24 270l10 16l45 13l12 -11q41 -151 66 -254l278 89l9 -7l4 -22l-6 -12l-279 -84q30 -205 -10 -392q-47 -217 -211 -419q3 -41 49 -41q52 0 170 106 q110 95 324 309q0 -30 0 -24q-9 -43 -131 -162q-111 -111 -254 -229q-115 -80 -170 -80q-51 0 -78 37q-181 -138 -340 -138q-131 0 -192.5 70t-35.5 188zM219 197q-38 -177 105 -177q103 0 231 125q157 151 201 349q14 64 -11 116q-27 58 -100 58q-78 0 -188 -90 q-75 -66 -138 -158q-81 -123 -100 -223z" />
<glyph unicode="&#xf1;" horiz-adv-x="1019" d="M0 8q3 20 8 25l328 596q35 47 63 53l82 16q2 2 19 2q13 0 10 -18l-6 -12l-248 -443q448 478 608 478q54 0 82 -33.5t17 -83.5q-15 -61 -101 -203q-147 -247 -153 -279q-4 -17 4 -24.5t30 -7.5q102 0 578 479l2 -29q-8 -40 -215 -235q-322 -301 -444 -301 q-57 0 -85.5 35.5t-17.5 89.5q9 48 160 305q93 162 96 170q3 15 -5 22.5t-28 7.5q-86 0 -378 -292q-140 -140 -211 -244l-33 -49q-25 -25 -49 -31l-86 -8h-9q-18 0 -18 14zM489 807q99 176 228 176q53 0 74 -8l149 -41q21 -6 51 -6q84 0 121 82h49q-89 -183 -225 -183 q-6 0 -59 11l-148 39q-45 10 -63 10q-80 0 -121 -80h-56z" />
<glyph unicode="&#xf2;" horiz-adv-x="944" d="M63 233q35 172 226 322q191 156 375 156q110 0 167 -78q52 -76 31 -184t-141 -252q3 -41 49 -41q52 0 170 106q110 95 324 309q0 -30 0 -24q-9 -43 -131 -162q-111 -111 -254 -229q-115 -80 -170 -80q-51 0 -78 37q-181 -138 -340 -138q-131 0 -192.5 70t-35.5 188z M219 197q-41 -179 103 -179q111 0 274 172q-6 36 2 76q27 127 164 258q3 144 -117 144q-78 0 -188 -90q-75 -66 -138 -158q-81 -123 -100 -223zM604 1010q9 49 70 49q36 0 57 -55l82 -224h-61l-127 172q-24 35 -21 58z" />
<glyph unicode="&#xf3;" horiz-adv-x="944" d="M63 233q35 172 226 322q191 156 375 156q110 0 167 -78q52 -76 31 -184t-141 -252q3 -41 49 -41q52 0 170 106q110 95 324 309q0 -30 0 -24q-9 -43 -131 -162q-111 -111 -254 -229q-115 -80 -170 -80q-51 0 -78 37q-181 -138 -340 -138q-131 0 -192.5 70t-35.5 188z M219 197q-41 -179 103 -179q111 0 274 172q-6 36 2 76q27 127 164 258q3 144 -117 144q-78 0 -188 -90q-75 -66 -138 -158q-81 -123 -100 -223zM565 780l359 246q44 33 77 33q50 0 41 -51q-6 -34 -73 -64l-342 -164h-62z" />
<glyph unicode="&#xf4;" horiz-adv-x="944" d="M63 233q35 172 226 322q191 156 375 156q110 0 167 -78q52 -76 31 -184t-141 -252q3 -41 49 -41q52 0 170 106q110 95 324 309q0 -30 0 -24q-9 -43 -131 -162q-111 -111 -254 -229q-115 -80 -170 -80q-51 0 -78 37q-181 -138 -340 -138q-131 0 -192.5 70t-35.5 188z M219 197q-41 -179 103 -179q111 0 274 172q-6 36 2 76q27 127 164 258q3 144 -117 144q-78 0 -188 -90q-75 -66 -138 -158q-81 -123 -100 -223zM362 780l406 271h111l116 -271h-57l-141 183l-365 -183h-70z" />
<glyph unicode="&#xf5;" horiz-adv-x="944" d="M63 233q35 172 226 322q191 156 375 156q110 0 167 -78q52 -76 31 -184t-141 -252q3 -41 49 -41q52 0 170 106q110 95 324 309q0 -30 0 -24q-9 -43 -131 -162q-111 -111 -254 -229q-115 -80 -170 -80q-51 0 -78 37q-181 -138 -340 -138q-131 0 -192.5 70t-35.5 188z M219 197q-41 -179 103 -179q111 0 274 172q-6 36 2 76q27 127 164 258q3 144 -117 144q-78 0 -188 -90q-75 -66 -138 -158q-81 -123 -100 -223zM434 807q95 176 225 176q53 0 74 -8l150 -41q21 -6 53 -6q85 0 119 82h51q-92 -183 -227 -183q-5 0 -58 11l-147 39 q-45 10 -64 10q-82 0 -123 -80h-53z" />
<glyph unicode="&#xf6;" horiz-adv-x="944" d="M63 233q35 172 226 322q191 156 375 156q110 0 167 -78q52 -76 31 -184t-141 -252q3 -41 49 -41q52 0 170 106q110 95 324 309q0 -30 0 -24q-9 -43 -131 -162q-111 -111 -254 -229q-115 -80 -170 -80q-51 0 -78 37q-181 -138 -340 -138q-131 0 -192.5 70t-35.5 188z M219 197q-41 -179 103 -179q111 0 274 172q-6 36 2 76q27 127 164 258q3 144 -117 144q-78 0 -188 -90q-75 -66 -138 -158q-81 -123 -100 -223zM483 858q21 111 56 111q4 0 112 -19q36 -6 21 -86q-9 -45 -92 -45q-106 0 -97 39zM844 858q21 111 55 111q9 0 113 -19 q31 -5 16 -86q-9 -45 -88 -45q-105 0 -96 39z" />
<glyph unicode="&#xf7;" horiz-adv-x="1875" d="M397 561l21 96h1321l-21 -96h-1321zM872 258q11 43 53 75t89 32q52 0 80 -30t18 -77q-7 -44 -50 -75t-93 -31t-77.5 30.5t-19.5 75.5zM1022 963q11 43 53.5 75.5t89.5 32.5q50 0 78.5 -32t18.5 -76q-7 -46 -49.5 -76.5t-94.5 -30.5q-50 0 -77 31t-19 76z" />
<glyph unicode="&#xf8;" horiz-adv-x="944" d="M-31 -174l4 14l162 174q-102 74 -72 219q34 165 226 322q191 156 373 156q60 0 110 -29l150 164h18l25 -15l2 -14l-154 -162q76 -76 49 -206q-21 -108 -141 -252q3 -41 49 -41q52 0 170 106q110 95 324 309q0 -30 0 -24q-9 -43 -131 -162q-111 -111 -254 -229 q-115 -80 -170 -80q-51 0 -78 37q-181 -138 -359 -138q-44 0 -88 21l-176 -184l-10 -5zM213 94l516 543q-36 31 -84 31q-78 0 -188 -90q-75 -66 -138 -158q-81 -123 -100 -223q-15 -68 -6 -103zM238 55q27 -37 81 -37q114 0 277 172q-6 36 2 76q27 127 164 258q0 32 -8 68z " />
<glyph unicode="&#xf9;" horiz-adv-x="1013" d="M41 90q6 37 57 125l244 428q12 21 20.5 28t28.5 11l96 16h13q13 0 10 -16q-2 -5 -5 -12l-3 -6l-281 -474q-34 -69 -37 -88q-9 -41 35 -41q72 0 281 191q162 155 243 248q15 13 99 125q39 51 69 57l88 18h7q19 0 16 -18q0 -1 -10 -18l-273 -467q-32 -52 -39 -91 q-9 -43 33 -43q109 0 588 510q9 -16 6 -26q-9 -48 -178 -217q-346 -346 -496 -346q-118 0 -94 118q17 73 180 340q-440 -458 -606 -458q-113 0 -92 106zM655 1010q9 49 68 49q36 0 57 -55l82 -224h-61l-127 172q-22 36 -19 58z" />
<glyph unicode="&#xfa;" horiz-adv-x="1013" d="M41 90q6 37 57 125l244 428q12 21 20.5 28t28.5 11l96 16h13q13 0 10 -16q-2 -5 -5 -12l-3 -6l-281 -474q-34 -69 -37 -88q-9 -41 35 -41q72 0 281 191q162 155 243 248q15 13 99 125q39 51 69 57l88 18h7q19 0 16 -18q0 -1 -10 -18l-273 -467q-32 -52 -39 -91 q-9 -43 33 -43q109 0 588 510q9 -16 6 -26q-9 -48 -178 -217q-346 -346 -496 -346q-118 0 -94 118q17 73 180 340q-440 -458 -606 -458q-113 0 -92 106zM614 780l361 246q42 33 76 33q50 0 41 -51q-6 -34 -74 -64l-342 -164h-62z" />
<glyph unicode="&#xfb;" horiz-adv-x="1013" d="M41 90q6 37 57 125l244 428q12 21 20.5 28t28.5 11l96 16h13q13 0 10 -16q-2 -5 -5 -12l-3 -6l-281 -474q-34 -69 -37 -88q-9 -41 35 -41q72 0 281 191q162 155 243 248q15 13 99 125q39 51 69 57l88 18h7q19 0 16 -18q0 -1 -10 -18l-273 -467q-32 -52 -39 -91 q-9 -43 33 -43q109 0 588 510q9 -16 6 -26q-9 -48 -178 -217q-346 -346 -496 -346q-118 0 -94 118q17 73 180 340q-440 -458 -606 -458q-113 0 -92 106zM412 780l405 271h111l116 -271h-55l-141 183l-367 -183h-69z" />
<glyph unicode="&#xfc;" horiz-adv-x="1013" d="M41 90q6 37 57 125l244 428q12 21 20.5 28t28.5 11l96 16h13q13 0 10 -16q-2 -5 -5 -12l-3 -6l-281 -474q-34 -69 -37 -88q-9 -41 35 -41q72 0 281 191q162 155 243 248q15 13 99 125q39 51 69 57l88 18h7q19 0 16 -18q0 -1 -10 -18l-273 -467q-32 -52 -39 -91 q-9 -43 33 -43q109 0 588 510q9 -16 6 -26q-9 -48 -178 -217q-346 -346 -496 -346q-118 0 -94 118q17 73 180 340q-440 -458 -606 -458q-113 0 -92 106zM535 858q21 111 53 111q4 0 112 -19q36 -6 21 -86q-9 -45 -92 -45q-103 0 -94 39zM895 858q21 111 53 111q13 0 113 -19 q31 -5 16 -86q-9 -45 -88 -45q-103 0 -94 39z" />
<glyph unicode="&#xfd;" horiz-adv-x="1013" d="M53 -596q-8 38 2 86q47 221 428 442q22 63 234 471q-361 -403 -565 -403q-115 0 -91 119q3 26 56 121l229 413q17 26 53 29l99 10q11 0 8 -10q-2 -4 -8 -18l-260 -467q-26 -50 -33 -84q-9 -39 37 -39q122 0 440 348q71 77 156 192q50 65 73 68l101 12q15 0 12 -12 q-4 -10 -19 -34.5t-43.5 -71t-54.5 -91.5q-145 -240 -282 -520q277 179 688 584q2 -14 2 -27q-9 -44 -174 -196q-349 -312 -549 -430q-199 -391 -526 -494zM170 -438q-9 -34 0 -72q188 80 299 381q-264 -144 -299 -309zM614 780l361 246q42 33 76 33q50 0 41 -51 q-6 -34 -74 -64l-342 -164h-62z" />
<glyph unicode="&#xfe;" horiz-adv-x="974" d="M-172 -598q-12 99 18 246q59 284 295 561l475 1034q18 41 54 47l98 15q19 0 16 -21l-2 -10l-403 -834q283 271 438 271q84 0 122.5 -48.5t21.5 -127.5q-49 -226 -447 -408q27 -59 115 -59q199 0 669 507q4 -25 2 -28q-12 -58 -172 -209q-158 -146 -262 -221 q-180 -121 -313 -121q-61 0 -137 27q-46 17 -66 36.5t-16 42.5q3 16 65 43l80 33q269 127 309 322q11 54 -9 80t-74 26q-130 0 -375 -287q-350 -760 -492 -917h-10zM-104 -434q75 100 196 514q-132 -156 -188 -412q-11 -55 -8 -102z" />
<glyph unicode="&#xff;" horiz-adv-x="1013" d="M53 -596q-8 38 2 86q47 221 428 442q22 63 234 471q-361 -403 -565 -403q-115 0 -91 119q3 26 56 121l229 413q17 26 53 29l99 10q11 0 8 -10q-2 -4 -8 -18l-260 -467q-26 -50 -33 -84q-9 -39 37 -39q122 0 440 348q71 77 156 192q50 65 73 68l101 12q15 0 12 -12 q-4 -10 -19 -34.5t-43.5 -71t-54.5 -91.5q-145 -240 -282 -520q277 179 688 584q2 -14 2 -27q-9 -44 -174 -196q-349 -312 -549 -430q-199 -391 -526 -494zM170 -438q-9 -34 0 -72q188 80 299 381q-264 -144 -299 -309zM535 858q21 111 53 111q4 0 112 -19q36 -6 21 -86 q-9 -45 -92 -45q-103 0 -94 39zM895 858q21 111 53 111q13 0 113 -19q31 -5 16 -86q-9 -45 -88 -45q-103 0 -94 39z" />
<glyph unicode="&#x153;" horiz-adv-x="1300" d="M63 233q35 172 226 322q191 156 375 156q140 0 190 -117q153 117 299 117q77 0 124 -38t34 -102q-27 -124 -238 -235q-146 -79 -336 -129q-37 -174 129 -174q173 0 420 198q169 136 340 328q3 -18 0 -24q-12 -61 -135 -181q-377 -377 -694 -377q-155 0 -201 107 q-165 -109 -305 -109q-131 0 -192.5 70t-35.5 188zM219 197q-41 -179 103 -179q105 0 256 154q4 36 10 59q30 155 174 293q3 144 -117 144q-78 0 -188 -90q-75 -66 -138 -158q-81 -123 -100 -223zM748 254q169 34 292 131q119 90 140 197q15 80 -58 80q-85 0 -190 -105 q-24 -30 -66 -76l-2 -4q-69 -90 -116 -223z" />
<glyph unicode="&#x178;" horiz-adv-x="2260" d="M289 705q61 294 282 512q211 208 543 321q238 277 582 277q210 0 346 -103q148 -115 108 -299q-37 -171 -243 -397q-76 -76 -127 -133q1 6 -4 -2q-8 -10 -35 -56q124 38 323 183l23 -17q-155 -146 -385 -217q-63 -108 -72 -156q-12 -61 8 -100q27 -47 88 -47 q147 0 328 309l123 203q127 209 340 387q248 211 465 211q95 0 153 -37q67 -46 52 -125q-7 -35 -40 -59.5t-71 -24.5q-72 0 -57 78q3 4 5.5 13.5t7.5 24.5t11 30q7 32 -15 47.5t-73 15.5q-210 0 -401 -221q-143 -166 -238 -391l-94 -227q-391 -914 -1186 -914 q-408 0 -622 272q-205 267 -125 642zM334 662q-68 -327 112 -574q191 -262 541 -262q522 0 918 686q-101 -76 -185 -76q-135 0 -190 88q-53 84 -27 207h-55q-255 0 -391 148q-139 151 -90 381q21 97 94 221q-282 -117 -479 -338q-191 -215 -248 -481zM1008 1260 q-47 -219 79 -363q126 -141 367 -141l21 4q7 1 15 2t12.5 1.5t8.5 0.5q55 155 232 338l151 158q143 146 166 260q27 134 -98 204q-108 60 -260 60q-319 0 -533 -230q112 33 256 33q229 0 439 -131l-25 -37q-199 135 -420 135q-129 0 -297 -55q-87 -112 -114 -239zM2316 1862 q21 110 56 110q10 0 112 -18q39 -6 21 -86q-9 -45 -92 -45q-106 0 -97 39zM2677 1862q21 110 55 110q14 0 113 -18q32 -6 14 -86q-9 -45 -86 -45q-105 0 -96 39z" />
<glyph unicode="&#x2c6;" horiz-adv-x="1128" d="M496 780l405 271h111l116 -271h-57l-141 183l-365 -183h-69z" />
<glyph unicode="&#x2dc;" horiz-adv-x="1128" d="M567 807q95 176 226 176q52 0 73 -8l150 -41q21 -6 53 -6q82 0 119 82h51q-92 -183 -227 -183q-5 0 -58 11l-147 39q-45 10 -64 10q-81 0 -122 -80h-54z" />
<glyph unicode="&#x2000;" horiz-adv-x="1092" />
<glyph unicode="&#x2001;" horiz-adv-x="2185" />
<glyph unicode="&#x2002;" horiz-adv-x="1092" />
<glyph unicode="&#x2003;" horiz-adv-x="2185" />
<glyph unicode="&#x2004;" horiz-adv-x="728" />
<glyph unicode="&#x2005;" horiz-adv-x="546" />
<glyph unicode="&#x2006;" horiz-adv-x="364" />
<glyph unicode="&#x2007;" horiz-adv-x="364" />
<glyph unicode="&#x2008;" horiz-adv-x="273" />
<glyph unicode="&#x2009;" horiz-adv-x="437" />
<glyph unicode="&#x200a;" horiz-adv-x="121" />
<glyph unicode="&#x2010;" horiz-adv-x="970" d="M371 371l49 84l18 10h506l8 -12l-49 -93l-16 -6h-514z" />
<glyph unicode="&#x2011;" horiz-adv-x="970" d="M371 371l49 84l18 10h506l8 -12l-49 -93l-16 -6h-514z" />
<glyph unicode="&#x2012;" horiz-adv-x="970" d="M371 371l49 84l18 10h506l8 -12l-49 -93l-16 -6h-514z" />
<glyph unicode="&#x2013;" horiz-adv-x="1128" d="M0 379l39 63l16 7l1082 -9l-37 -63l-10 -6h-1084z" />
<glyph unicode="&#x2014;" horiz-adv-x="2252" d="M131 371l45 78h2247l-39 -78h-2253z" />
<glyph unicode="&#x2018;" horiz-adv-x="520" d="M489 1167q30 151 369 293l-20 -49q-209 -96 -224 -174q-9 -39 41 -39q12 0 62 16l4 -10l-43 -88q-24 -49 -100 -49q-110 0 -89 100z" />
<glyph unicode="&#x2019;" horiz-adv-x="520" d="M467 1057l22 47q209 96 224 174q9 39 -39 39q-19 0 -60 -14l-10 8l47 88q24 49 101 49q103 0 82 -105q-34 -149 -367 -286z" />
<glyph unicode="&#x201a;" horiz-adv-x="520" d="M18 -207l29 47q199 94 215 168q9 43 -37 43q-18 0 -61 -14l-10 8l49 92q18 41 98 41q105 0 84 -98q-30 -145 -367 -287z" />
<glyph unicode="&#x201c;" horiz-adv-x="860" d="M489 1167q30 151 369 293l-20 -49q-209 -96 -224 -174q-9 -39 41 -39q12 0 62 16l4 -10l-43 -88q-24 -49 -100 -49q-110 0 -89 100zM829 1167q30 151 373 293l-28 -49q-205 -95 -220 -174q-9 -39 37 -39q18 0 64 16l8 -10l-45 -88q-27 -49 -100 -49q-110 0 -89 100z" />
<glyph unicode="&#x201d;" horiz-adv-x="860" d="M467 1057l22 47q209 96 224 174q9 39 -39 39q-19 0 -60 -14l-10 8l47 88q24 49 101 49q103 0 82 -105q-34 -149 -367 -286zM807 1057l22 47q209 96 224 174q4 20 -7 29.5t-38 9.5q-15 0 -58 -14l-8 8l47 88q24 49 101 49q49 0 74 -30t14 -75q-30 -148 -371 -286z" />
<glyph unicode="&#x201e;" horiz-adv-x="860" d="M18 -207l29 47q199 94 215 168q9 43 -37 43q-18 0 -61 -14l-10 8l49 92q18 41 98 41q105 0 84 -98q-30 -145 -367 -287zM358 -207l25 47q204 98 219 168q9 43 -43 43q-13 0 -59 -14l-4 8l47 92q27 41 98 41q109 0 88 -98q-30 -146 -371 -287z" />
<glyph unicode="&#x2022;" horiz-adv-x="976" d="M340 692q30 120 137 202.5t242 82.5q122 0 196.5 -84t49.5 -199q-29 -119 -136 -201.5t-235 -82.5t-203.5 83t-50.5 199z" />
<glyph unicode="&#x2026;" horiz-adv-x="2252" d="M238 27q24 110 59 110q36 -3 102 -22q32 0 17 -82q-9 -39 -80 -39q-53 0 -77 8t-21 25zM987 27q24 110 55 110q2 0 109 -22q33 0 18 -82q-9 -39 -88 -39q-51 0 -74 8t-20 25zM1739 27q24 110 59 110q1 0 11.5 -2.5t37.5 -8t54 -11.5q33 0 18 -82q-9 -39 -82 -39 q-53 0 -77 8t-21 25z" />
<glyph unicode="&#x202f;" horiz-adv-x="437" />
<glyph unicode="&#x2039;" horiz-adv-x="712" d="M332 373l428 252q29 16 47 16q13 0 18.5 -4.5t3.5 -13.5q-4 -17 -38 -41l-320 -228l14 -254v-30q-6 -27 -26 -27q-21 0 -33 37z" />
<glyph unicode="&#x203a;" horiz-adv-x="712" d="M158 68q4 15 35 34l321 228l-16 256q-2 16 -2 30q6 25 26 25q26 0 35 -35l92 -293l-428 -252q-30 -18 -47 -18q-22 0 -16 25z" />
<glyph unicode="&#x205f;" horiz-adv-x="546" />
<glyph unicode="&#x2122;" horiz-adv-x="2072" d="M680 774q15 76 94 76q58 0 49 -49q-12 -53 -73 -53q-48 0 -39 40q3 18 22 31q2 2 2 4l-2 2q-32 0 -41 -53q-10 -44 30.5 -74t108.5 -30q107 0 210 62.5t251 217.5q170 185 330 262q-21 5 -31 9q-145 43 -256 43q-133 0 -264 -88q-135 -85 -156 -189q-15 -71 48 -80 q9 -1 13.5 -4t2.5 -6q0 -4 -4 -4q-41 0 -61.5 27t-12.5 69q24 116 197 221q174 107 344 107q98 0 293 -53q109 34 215 34q89 0 130.5 -13.5t35.5 -41.5q-6 -31 -74 -50.5t-170 -19.5q-88 0 -240 35q-89 -53 -182 -200q-91 -139 -150 -195q-62 -57 -159 -98 q-154 -60 -291 -60q-88 0 -135 33.5t-35 87.5zM1337 770q15 76 97 76q54 0 45 -51q-12 -56 -74 -56q-46 0 -37 43q4 15 18 29q3 3 3 4q1 1 0 2.5t-3 1.5q-23 0 -32 -47q-10 -44 28.5 -75t104.5 -31q235 0 588 438q135 169 223 225q40 27 51 27q2 0 4 -2q0 -2 -12 -8 q-63 -41 -115 -216q-63 -198 -125 -286q-68 -100 -172 -156q140 53 367 289q194 207 333.5 294t268.5 87q94 0 147.5 -51.5t36.5 -126.5q-15 -72 -37 -72q-6 0 -2 4l6 10q16 32 19 52q14 66 -36 110.5t-140 44.5q-122 0 -255 -83t-331 -281q-170 -163 -207 -193 q-61 -50 -151 -86q-46 -18 -60 -18q-4 0 -6 2q0 1 10 8q98 76 176 278q65 164 111 230q43 70 131 143q-111 -69 -229 -242q-164 -238 -301 -323q-182 -111 -297 -111q-73 0 -115 33.5t-31 83.5zM1749 1257q196 -47 262 -47q86 0 92 31q3 12 -17 22.5t-57 16.5t-81 6 q-98 0 -199 -29zM2001 668q3 12 29 12q38 0 69 -8q80 16 131 67q58 49 211 250q165 210 330 295q59 33 74 33q2 0 2 -4l-8 -6q-73 -37 -121 -88q-44 -44 -127 -181q-104 -170 -213.5 -256t-255.5 -112q110 -4 112 -4q91 0 160.5 35.5t155.5 127.5q2 2 4.5 3.5t3.5 2.5t2 1 q2 0 4 -2l-6 -11l-18 -16q-90 -87 -150 -119q-75 -35 -156 -35q-14 0 -139 11q-40 -7 -61 -7q-11 0 -19 1.5t-11.5 4t-2.5 5.5z" />
<glyph unicode="&#x25fc;" horiz-adv-x="696" d="M0 0v696h696v-696h-696z" />
</font>
</defs>
</svg>
